G04 #@! TF.GenerationSoftware,KiCad,Pcbnew,5.1.5+dfsg1-2build2*
G04 #@! TF.CreationDate,2021-12-20T11:22:31-05:00*
G04 #@! TF.ProjectId,pro_SE_DCM,70726f5f-5345-45f4-9443-4d2e6b696361,rev?*
G04 #@! TF.SameCoordinates,Original*
G04 #@! TF.FileFunction,Soldermask,Bot*
G04 #@! TF.FilePolarity,Negative*
%FSLAX46Y46*%
G04 Gerber Fmt 4.6, Leading zero omitted, Abs format (unit mm)*
G04 Created by KiCad (PCBNEW 5.1.5+dfsg1-2build2) date 2021-12-20 11:22:31*
%MOMM*%
%LPD*%
G04 APERTURE LIST*
%ADD10C,2.500000*%
%ADD11R,1.700000X1.700000*%
%ADD12O,1.700000X1.700000*%
%ADD13R,3.500000X3.500000*%
%ADD14C,0.100000*%
G04 APERTURE END LIST*
D10*
X84709000Y-80899000D03*
X80899000Y-150622000D03*
X123317000Y-80899000D03*
D11*
X124333000Y-145288000D03*
D12*
X124333000Y-142748000D03*
D11*
X78105000Y-115189000D03*
D12*
X78105000Y-117729000D03*
X78105000Y-120269000D03*
X78105000Y-122809000D03*
X78105000Y-125349000D03*
X124968000Y-98425000D03*
X124968000Y-95885000D03*
X124968000Y-93345000D03*
X124968000Y-90805000D03*
D11*
X124968000Y-88265000D03*
D12*
X78105000Y-98298000D03*
X78105000Y-95758000D03*
X78105000Y-93218000D03*
X78105000Y-90678000D03*
D11*
X78105000Y-88138000D03*
D12*
X124968000Y-125603000D03*
X124968000Y-123063000D03*
X124968000Y-120523000D03*
X124968000Y-117983000D03*
D11*
X124968000Y-115443000D03*
D12*
X78105000Y-136144000D03*
X78105000Y-133604000D03*
D11*
X78105000Y-131064000D03*
D12*
X124968000Y-109474000D03*
X124968000Y-106934000D03*
D11*
X124968000Y-104394000D03*
D13*
X118618000Y-152527000D03*
D14*
G36*
X119691513Y-157030611D02*
G01*
X119764318Y-157041411D01*
X119835714Y-157059295D01*
X119905013Y-157084090D01*
X119971548Y-157115559D01*
X120034678Y-157153398D01*
X120093795Y-157197242D01*
X120148330Y-157246670D01*
X120197758Y-157301205D01*
X120241602Y-157360322D01*
X120279441Y-157423452D01*
X120310910Y-157489987D01*
X120335705Y-157559286D01*
X120353589Y-157630682D01*
X120364389Y-157703487D01*
X120368000Y-157777000D01*
X120368000Y-159277000D01*
X120364389Y-159350513D01*
X120353589Y-159423318D01*
X120335705Y-159494714D01*
X120310910Y-159564013D01*
X120279441Y-159630548D01*
X120241602Y-159693678D01*
X120197758Y-159752795D01*
X120148330Y-159807330D01*
X120093795Y-159856758D01*
X120034678Y-159900602D01*
X119971548Y-159938441D01*
X119905013Y-159969910D01*
X119835714Y-159994705D01*
X119764318Y-160012589D01*
X119691513Y-160023389D01*
X119618000Y-160027000D01*
X117618000Y-160027000D01*
X117544487Y-160023389D01*
X117471682Y-160012589D01*
X117400286Y-159994705D01*
X117330987Y-159969910D01*
X117264452Y-159938441D01*
X117201322Y-159900602D01*
X117142205Y-159856758D01*
X117087670Y-159807330D01*
X117038242Y-159752795D01*
X116994398Y-159693678D01*
X116956559Y-159630548D01*
X116925090Y-159564013D01*
X116900295Y-159494714D01*
X116882411Y-159423318D01*
X116871611Y-159350513D01*
X116868000Y-159277000D01*
X116868000Y-157777000D01*
X116871611Y-157703487D01*
X116882411Y-157630682D01*
X116900295Y-157559286D01*
X116925090Y-157489987D01*
X116956559Y-157423452D01*
X116994398Y-157360322D01*
X117038242Y-157301205D01*
X117087670Y-157246670D01*
X117142205Y-157197242D01*
X117201322Y-157153398D01*
X117264452Y-157115559D01*
X117330987Y-157084090D01*
X117400286Y-157059295D01*
X117471682Y-157041411D01*
X117544487Y-157030611D01*
X117618000Y-157027000D01*
X119618000Y-157027000D01*
X119691513Y-157030611D01*
G37*
G36*
X124278765Y-153781213D02*
G01*
X124363704Y-153793813D01*
X124446999Y-153814677D01*
X124527848Y-153843605D01*
X124605472Y-153880319D01*
X124679124Y-153924464D01*
X124748094Y-153975616D01*
X124811718Y-154033282D01*
X124869384Y-154096906D01*
X124920536Y-154165876D01*
X124964681Y-154239528D01*
X125001395Y-154317152D01*
X125030323Y-154398001D01*
X125051187Y-154481296D01*
X125063787Y-154566235D01*
X125068000Y-154652000D01*
X125068000Y-156402000D01*
X125063787Y-156487765D01*
X125051187Y-156572704D01*
X125030323Y-156655999D01*
X125001395Y-156736848D01*
X124964681Y-156814472D01*
X124920536Y-156888124D01*
X124869384Y-156957094D01*
X124811718Y-157020718D01*
X124748094Y-157078384D01*
X124679124Y-157129536D01*
X124605472Y-157173681D01*
X124527848Y-157210395D01*
X124446999Y-157239323D01*
X124363704Y-157260187D01*
X124278765Y-157272787D01*
X124193000Y-157277000D01*
X122443000Y-157277000D01*
X122357235Y-157272787D01*
X122272296Y-157260187D01*
X122189001Y-157239323D01*
X122108152Y-157210395D01*
X122030528Y-157173681D01*
X121956876Y-157129536D01*
X121887906Y-157078384D01*
X121824282Y-157020718D01*
X121766616Y-156957094D01*
X121715464Y-156888124D01*
X121671319Y-156814472D01*
X121634605Y-156736848D01*
X121605677Y-156655999D01*
X121584813Y-156572704D01*
X121572213Y-156487765D01*
X121568000Y-156402000D01*
X121568000Y-154652000D01*
X121572213Y-154566235D01*
X121584813Y-154481296D01*
X121605677Y-154398001D01*
X121634605Y-154317152D01*
X121671319Y-154239528D01*
X121715464Y-154165876D01*
X121766616Y-154096906D01*
X121824282Y-154033282D01*
X121887906Y-153975616D01*
X121956876Y-153924464D01*
X122030528Y-153880319D01*
X122108152Y-153843605D01*
X122189001Y-153814677D01*
X122272296Y-153793813D01*
X122357235Y-153781213D01*
X122443000Y-153777000D01*
X124193000Y-153777000D01*
X124278765Y-153781213D01*
G37*
D11*
X78105000Y-104140000D03*
D12*
X78105000Y-106680000D03*
X78105000Y-109220000D03*
M02*
