G04 #@! TF.GenerationSoftware,KiCad,Pcbnew,5.1.5+dfsg1-2build2*
G04 #@! TF.CreationDate,2021-12-20T11:22:31-05:00*
G04 #@! TF.ProjectId,pro_SE_DCM,70726f5f-5345-45f4-9443-4d2e6b696361,rev?*
G04 #@! TF.SameCoordinates,Original*
G04 #@! TF.FileFunction,Legend,Top*
G04 #@! TF.FilePolarity,Positive*
%FSLAX46Y46*%
G04 Gerber Fmt 4.6, Leading zero omitted, Abs format (unit mm)*
G04 Created by KiCad (PCBNEW 5.1.5+dfsg1-2build2) date 2021-12-20 11:22:31*
%MOMM*%
%LPD*%
G04 APERTURE LIST*
%ADD10C,0.120000*%
%ADD11C,0.100000*%
%ADD12C,0.200000*%
%ADD13C,0.150000*%
%ADD14C,0.254000*%
G04 APERTURE END LIST*
D10*
X109402000Y-152853000D02*
X102942000Y-152853000D01*
X109402000Y-157383000D02*
X109402000Y-154783000D01*
X109402000Y-159313000D02*
X102942000Y-159313000D01*
X102942000Y-157383000D02*
X102942000Y-154783000D01*
X109402000Y-159283000D02*
X109402000Y-159313000D01*
X109402000Y-152853000D02*
X109402000Y-152883000D01*
X102942000Y-152853000D02*
X102942000Y-152883000D01*
X102942000Y-159313000D02*
X102942000Y-159283000D01*
X88845000Y-159313000D02*
X88845000Y-159283000D01*
X88845000Y-152853000D02*
X88845000Y-152883000D01*
X95305000Y-152853000D02*
X95305000Y-152883000D01*
X95305000Y-159283000D02*
X95305000Y-159313000D01*
X88845000Y-157383000D02*
X88845000Y-154783000D01*
X95305000Y-159313000D02*
X88845000Y-159313000D01*
X95305000Y-157383000D02*
X95305000Y-154783000D01*
X95305000Y-152853000D02*
X88845000Y-152853000D01*
X91238000Y-148086578D02*
X91238000Y-147569422D01*
X92658000Y-148086578D02*
X92658000Y-147569422D01*
X105335000Y-148086578D02*
X105335000Y-147569422D01*
X106755000Y-148086578D02*
X106755000Y-147569422D01*
X99770000Y-148086578D02*
X99770000Y-147569422D01*
X98350000Y-148086578D02*
X98350000Y-147569422D01*
X118439000Y-135894578D02*
X118439000Y-135377422D01*
X117019000Y-135894578D02*
X117019000Y-135377422D01*
X98785750Y-129876250D02*
X98785750Y-129088750D01*
X99179500Y-129482500D02*
X98392000Y-129482500D01*
X98152000Y-125289437D02*
X97087563Y-124225000D01*
X98152000Y-129980563D02*
X97087563Y-131045000D01*
X98152000Y-129980563D02*
X98152000Y-128695000D01*
X98152000Y-125289437D02*
X98152000Y-126575000D01*
X97087563Y-124225000D02*
X91332000Y-124225000D01*
X97087563Y-131045000D02*
X91332000Y-131045000D01*
X91332000Y-131045000D02*
X91332000Y-128695000D01*
X91332000Y-124225000D02*
X91332000Y-126575000D01*
X118439000Y-124640078D02*
X118439000Y-124122922D01*
X117019000Y-124640078D02*
X117019000Y-124122922D01*
X91205000Y-135401000D02*
X91205000Y-137751000D01*
X91205000Y-142221000D02*
X91205000Y-139871000D01*
X96960563Y-142221000D02*
X91205000Y-142221000D01*
X96960563Y-135401000D02*
X91205000Y-135401000D01*
X98025000Y-136465437D02*
X98025000Y-137751000D01*
X98025000Y-141156563D02*
X98025000Y-139871000D01*
X98025000Y-141156563D02*
X96960563Y-142221000D01*
X98025000Y-136465437D02*
X96960563Y-135401000D01*
X99052500Y-140658500D02*
X98265000Y-140658500D01*
X98658750Y-141052250D02*
X98658750Y-140264750D01*
X88768422Y-103176000D02*
X89285578Y-103176000D01*
X88768422Y-104596000D02*
X89285578Y-104596000D01*
X106858000Y-119245000D02*
X110743000Y-119245000D01*
X110743000Y-119245000D02*
X110743000Y-116975000D01*
X110743000Y-116975000D02*
X106858000Y-116975000D01*
X99188000Y-112641000D02*
X103073000Y-112641000D01*
X99188000Y-110371000D02*
X99188000Y-112641000D01*
X103073000Y-110371000D02*
X99188000Y-110371000D01*
X125663000Y-144018000D02*
X123003000Y-144018000D01*
X125663000Y-144018000D02*
X125663000Y-141418000D01*
X125663000Y-141418000D02*
X123003000Y-141418000D01*
X123003000Y-144018000D02*
X123003000Y-141418000D01*
X123003000Y-146618000D02*
X123003000Y-145288000D01*
X124333000Y-146618000D02*
X123003000Y-146618000D01*
X76775000Y-116459000D02*
X79435000Y-116459000D01*
X76775000Y-116459000D02*
X76775000Y-126679000D01*
X76775000Y-126679000D02*
X79435000Y-126679000D01*
X79435000Y-116459000D02*
X79435000Y-126679000D01*
X79435000Y-113859000D02*
X79435000Y-115189000D01*
X78105000Y-113859000D02*
X79435000Y-113859000D01*
X124968000Y-86935000D02*
X126298000Y-86935000D01*
X126298000Y-86935000D02*
X126298000Y-88265000D01*
X126298000Y-89535000D02*
X126298000Y-99755000D01*
X123638000Y-99755000D02*
X126298000Y-99755000D01*
X123638000Y-89535000D02*
X123638000Y-99755000D01*
X123638000Y-89535000D02*
X126298000Y-89535000D01*
X78105000Y-86808000D02*
X79435000Y-86808000D01*
X79435000Y-86808000D02*
X79435000Y-88138000D01*
X79435000Y-89408000D02*
X79435000Y-99628000D01*
X76775000Y-99628000D02*
X79435000Y-99628000D01*
X76775000Y-89408000D02*
X76775000Y-99628000D01*
X76775000Y-89408000D02*
X79435000Y-89408000D01*
X124968000Y-114113000D02*
X126298000Y-114113000D01*
X126298000Y-114113000D02*
X126298000Y-115443000D01*
X126298000Y-116713000D02*
X126298000Y-126933000D01*
X123638000Y-126933000D02*
X126298000Y-126933000D01*
X123638000Y-116713000D02*
X123638000Y-126933000D01*
X123638000Y-116713000D02*
X126298000Y-116713000D01*
X78105000Y-129734000D02*
X79435000Y-129734000D01*
X79435000Y-129734000D02*
X79435000Y-131064000D01*
X79435000Y-132334000D02*
X79435000Y-137474000D01*
X76775000Y-137474000D02*
X79435000Y-137474000D01*
X76775000Y-132334000D02*
X76775000Y-137474000D01*
X76775000Y-132334000D02*
X79435000Y-132334000D01*
X124968000Y-103064000D02*
X126298000Y-103064000D01*
X126298000Y-103064000D02*
X126298000Y-104394000D01*
X126298000Y-105664000D02*
X126298000Y-110804000D01*
X123638000Y-110804000D02*
X126298000Y-110804000D01*
X123638000Y-105664000D02*
X123638000Y-110804000D01*
X123638000Y-105664000D02*
X126298000Y-105664000D01*
X114868000Y-151427000D02*
X113818000Y-151427000D01*
X113818000Y-152477000D02*
X113818000Y-151427000D01*
X123218000Y-157527000D02*
X123218000Y-166327000D01*
X123218000Y-166327000D02*
X114018000Y-166327000D01*
X120518000Y-151627000D02*
X123218000Y-151627000D01*
X123218000Y-151627000D02*
X123218000Y-153527000D01*
X114018000Y-166327000D02*
X114018000Y-151627000D01*
X114018000Y-151627000D02*
X116618000Y-151627000D01*
X113771000Y-112303936D02*
X113771000Y-113508064D01*
X115591000Y-112303936D02*
X115591000Y-113508064D01*
X84688000Y-132555064D02*
X84688000Y-131350936D01*
X86508000Y-132555064D02*
X86508000Y-131350936D01*
X106167000Y-124225000D02*
X106167000Y-125485000D01*
X106167000Y-131045000D02*
X106167000Y-129785000D01*
X109927000Y-124225000D02*
X106167000Y-124225000D01*
X112177000Y-131045000D02*
X106167000Y-131045000D01*
X112177000Y-142221000D02*
X106167000Y-142221000D01*
X109927000Y-135401000D02*
X106167000Y-135401000D01*
X106167000Y-142221000D02*
X106167000Y-140961000D01*
X106167000Y-135401000D02*
X106167000Y-136661000D01*
D11*
X97934000Y-85317000D02*
X97934000Y-85317000D01*
X97934000Y-85317000D02*
X97934000Y-78817000D01*
X97934000Y-78817000D02*
X97934000Y-78817000D01*
X97934000Y-78817000D02*
X97934000Y-85317000D01*
X97934000Y-78817000D02*
X115934000Y-78817000D01*
X115934000Y-78817000D02*
X115934000Y-78817000D01*
X115934000Y-78817000D02*
X97934000Y-78817000D01*
X97934000Y-78817000D02*
X97934000Y-78817000D01*
X115934000Y-78817000D02*
X115934000Y-78817000D01*
X115934000Y-78817000D02*
X115934000Y-85317000D01*
X115934000Y-85317000D02*
X115934000Y-85317000D01*
X115934000Y-85317000D02*
X115934000Y-78817000D01*
X115934000Y-103817000D02*
X115934000Y-103817000D01*
X115934000Y-103817000D02*
X115934000Y-104317000D01*
X115934000Y-104317000D02*
X115934000Y-104317000D01*
X115934000Y-104317000D02*
X115934000Y-103817000D01*
X115934000Y-104317000D02*
X113684000Y-104317000D01*
X113684000Y-104317000D02*
X113684000Y-104317000D01*
X113684000Y-104317000D02*
X115934000Y-104317000D01*
X115934000Y-104317000D02*
X115934000Y-104317000D01*
X100184000Y-104317000D02*
X97934000Y-104317000D01*
X97934000Y-104317000D02*
X97934000Y-104317000D01*
X97934000Y-104317000D02*
X100184000Y-104317000D01*
X100184000Y-104317000D02*
X100184000Y-104317000D01*
X97934000Y-104317000D02*
X97934000Y-104317000D01*
X97934000Y-104317000D02*
X97934000Y-103817000D01*
X97934000Y-103817000D02*
X97934000Y-103817000D01*
X97934000Y-103817000D02*
X97934000Y-104317000D01*
D12*
X96234000Y-86307000D02*
X96234000Y-86307000D01*
X96334000Y-86307000D02*
X96334000Y-86307000D01*
X96234000Y-86307000D02*
X96234000Y-86307000D01*
X96334000Y-86307000D02*
G75*
G02X96234000Y-86307000I-50000J0D01*
G01*
X96234000Y-86307000D02*
G75*
G02X96334000Y-86307000I50000J0D01*
G01*
X96334000Y-86307000D02*
G75*
G02X96234000Y-86307000I-50000J0D01*
G01*
X90627000Y-117853000D02*
X87427000Y-117853000D01*
X87427000Y-117853000D02*
X87427000Y-107953000D01*
X87427000Y-107953000D02*
X90627000Y-107953000D01*
X90627000Y-107953000D02*
X90627000Y-117853000D01*
X92502000Y-118023000D02*
X90977000Y-118023000D01*
D10*
X100870936Y-117200000D02*
X102075064Y-117200000D01*
X100870936Y-119020000D02*
X102075064Y-119020000D01*
X109060064Y-110596000D02*
X107855936Y-110596000D01*
X109060064Y-112416000D02*
X107855936Y-112416000D01*
X93730578Y-88975000D02*
X93213422Y-88975000D01*
X93730578Y-87555000D02*
X93213422Y-87555000D01*
X76775000Y-105410000D02*
X79435000Y-105410000D01*
X76775000Y-105410000D02*
X76775000Y-110550000D01*
X76775000Y-110550000D02*
X79435000Y-110550000D01*
X79435000Y-105410000D02*
X79435000Y-110550000D01*
X79435000Y-102810000D02*
X79435000Y-104140000D01*
X78105000Y-102810000D02*
X79435000Y-102810000D01*
D13*
X98639428Y-156011571D02*
X98782285Y-156059190D01*
X98829904Y-156106809D01*
X98877523Y-156202047D01*
X98877523Y-156344904D01*
X98829904Y-156440142D01*
X98782285Y-156487761D01*
X98687047Y-156535380D01*
X98306095Y-156535380D01*
X98306095Y-155535380D01*
X98639428Y-155535380D01*
X98734666Y-155583000D01*
X98782285Y-155630619D01*
X98829904Y-155725857D01*
X98829904Y-155821095D01*
X98782285Y-155916333D01*
X98734666Y-155963952D01*
X98639428Y-156011571D01*
X98306095Y-156011571D01*
X99496571Y-155535380D02*
X99687047Y-155535380D01*
X99782285Y-155583000D01*
X99877523Y-155678238D01*
X99925142Y-155868714D01*
X99925142Y-156202047D01*
X99877523Y-156392523D01*
X99782285Y-156487761D01*
X99687047Y-156535380D01*
X99496571Y-156535380D01*
X99401333Y-156487761D01*
X99306095Y-156392523D01*
X99258476Y-156202047D01*
X99258476Y-155868714D01*
X99306095Y-155678238D01*
X99401333Y-155583000D01*
X99496571Y-155535380D01*
X100877523Y-156535380D02*
X100306095Y-156535380D01*
X100591809Y-156535380D02*
X100591809Y-155535380D01*
X100496571Y-155678238D01*
X100401333Y-155773476D01*
X100306095Y-155821095D01*
X83875714Y-156011571D02*
X84209047Y-156011571D01*
X84351904Y-156535380D02*
X83875714Y-156535380D01*
X83875714Y-155535380D01*
X84351904Y-155535380D01*
X84780476Y-156535380D02*
X84780476Y-155535380D01*
X85351904Y-156535380D01*
X85351904Y-155535380D01*
X86351904Y-156535380D02*
X85780476Y-156535380D01*
X86066190Y-156535380D02*
X86066190Y-155535380D01*
X85970952Y-155678238D01*
X85875714Y-155773476D01*
X85780476Y-155821095D01*
X91781333Y-145518142D02*
X91733714Y-145565761D01*
X91590857Y-145613380D01*
X91495619Y-145613380D01*
X91352761Y-145565761D01*
X91257523Y-145470523D01*
X91209904Y-145375285D01*
X91162285Y-145184809D01*
X91162285Y-145041952D01*
X91209904Y-144851476D01*
X91257523Y-144756238D01*
X91352761Y-144661000D01*
X91495619Y-144613380D01*
X91590857Y-144613380D01*
X91733714Y-144661000D01*
X91781333Y-144708619D01*
X92733714Y-145613380D02*
X92162285Y-145613380D01*
X92448000Y-145613380D02*
X92448000Y-144613380D01*
X92352761Y-144756238D01*
X92257523Y-144851476D01*
X92162285Y-144899095D01*
X105878333Y-145518142D02*
X105830714Y-145565761D01*
X105687857Y-145613380D01*
X105592619Y-145613380D01*
X105449761Y-145565761D01*
X105354523Y-145470523D01*
X105306904Y-145375285D01*
X105259285Y-145184809D01*
X105259285Y-145041952D01*
X105306904Y-144851476D01*
X105354523Y-144756238D01*
X105449761Y-144661000D01*
X105592619Y-144613380D01*
X105687857Y-144613380D01*
X105830714Y-144661000D01*
X105878333Y-144708619D01*
X106259285Y-144708619D02*
X106306904Y-144661000D01*
X106402142Y-144613380D01*
X106640238Y-144613380D01*
X106735476Y-144661000D01*
X106783095Y-144708619D01*
X106830714Y-144803857D01*
X106830714Y-144899095D01*
X106783095Y-145041952D01*
X106211666Y-145613380D01*
X106830714Y-145613380D01*
X98893333Y-145518142D02*
X98845714Y-145565761D01*
X98702857Y-145613380D01*
X98607619Y-145613380D01*
X98464761Y-145565761D01*
X98369523Y-145470523D01*
X98321904Y-145375285D01*
X98274285Y-145184809D01*
X98274285Y-145041952D01*
X98321904Y-144851476D01*
X98369523Y-144756238D01*
X98464761Y-144661000D01*
X98607619Y-144613380D01*
X98702857Y-144613380D01*
X98845714Y-144661000D01*
X98893333Y-144708619D01*
X99226666Y-144613380D02*
X99845714Y-144613380D01*
X99512380Y-144994333D01*
X99655238Y-144994333D01*
X99750476Y-145041952D01*
X99798095Y-145089571D01*
X99845714Y-145184809D01*
X99845714Y-145422904D01*
X99798095Y-145518142D01*
X99750476Y-145565761D01*
X99655238Y-145613380D01*
X99369523Y-145613380D01*
X99274285Y-145565761D01*
X99226666Y-145518142D01*
X117562333Y-132945142D02*
X117514714Y-132992761D01*
X117371857Y-133040380D01*
X117276619Y-133040380D01*
X117133761Y-132992761D01*
X117038523Y-132897523D01*
X116990904Y-132802285D01*
X116943285Y-132611809D01*
X116943285Y-132468952D01*
X116990904Y-132278476D01*
X117038523Y-132183238D01*
X117133761Y-132088000D01*
X117276619Y-132040380D01*
X117371857Y-132040380D01*
X117514714Y-132088000D01*
X117562333Y-132135619D01*
X118419476Y-132373714D02*
X118419476Y-133040380D01*
X118181380Y-131992761D02*
X117943285Y-132707047D01*
X118562333Y-132707047D01*
X94575333Y-130278142D02*
X94527714Y-130325761D01*
X94384857Y-130373380D01*
X94289619Y-130373380D01*
X94146761Y-130325761D01*
X94051523Y-130230523D01*
X94003904Y-130135285D01*
X93956285Y-129944809D01*
X93956285Y-129801952D01*
X94003904Y-129611476D01*
X94051523Y-129516238D01*
X94146761Y-129421000D01*
X94289619Y-129373380D01*
X94384857Y-129373380D01*
X94527714Y-129421000D01*
X94575333Y-129468619D01*
X95480095Y-129373380D02*
X95003904Y-129373380D01*
X94956285Y-129849571D01*
X95003904Y-129801952D01*
X95099142Y-129754333D01*
X95337238Y-129754333D01*
X95432476Y-129801952D01*
X95480095Y-129849571D01*
X95527714Y-129944809D01*
X95527714Y-130182904D01*
X95480095Y-130278142D01*
X95432476Y-130325761D01*
X95337238Y-130373380D01*
X95099142Y-130373380D01*
X95003904Y-130325761D01*
X94956285Y-130278142D01*
X117562333Y-121896142D02*
X117514714Y-121943761D01*
X117371857Y-121991380D01*
X117276619Y-121991380D01*
X117133761Y-121943761D01*
X117038523Y-121848523D01*
X116990904Y-121753285D01*
X116943285Y-121562809D01*
X116943285Y-121419952D01*
X116990904Y-121229476D01*
X117038523Y-121134238D01*
X117133761Y-121039000D01*
X117276619Y-120991380D01*
X117371857Y-120991380D01*
X117514714Y-121039000D01*
X117562333Y-121086619D01*
X118419476Y-120991380D02*
X118229000Y-120991380D01*
X118133761Y-121039000D01*
X118086142Y-121086619D01*
X117990904Y-121229476D01*
X117943285Y-121419952D01*
X117943285Y-121800904D01*
X117990904Y-121896142D01*
X118038523Y-121943761D01*
X118133761Y-121991380D01*
X118324238Y-121991380D01*
X118419476Y-121943761D01*
X118467095Y-121896142D01*
X118514714Y-121800904D01*
X118514714Y-121562809D01*
X118467095Y-121467571D01*
X118419476Y-121419952D01*
X118324238Y-121372333D01*
X118133761Y-121372333D01*
X118038523Y-121419952D01*
X117990904Y-121467571D01*
X117943285Y-121562809D01*
X94448333Y-141581142D02*
X94400714Y-141628761D01*
X94257857Y-141676380D01*
X94162619Y-141676380D01*
X94019761Y-141628761D01*
X93924523Y-141533523D01*
X93876904Y-141438285D01*
X93829285Y-141247809D01*
X93829285Y-141104952D01*
X93876904Y-140914476D01*
X93924523Y-140819238D01*
X94019761Y-140724000D01*
X94162619Y-140676380D01*
X94257857Y-140676380D01*
X94400714Y-140724000D01*
X94448333Y-140771619D01*
X94781666Y-140676380D02*
X95448333Y-140676380D01*
X95019761Y-141676380D01*
X88860333Y-102211142D02*
X88812714Y-102258761D01*
X88669857Y-102306380D01*
X88574619Y-102306380D01*
X88431761Y-102258761D01*
X88336523Y-102163523D01*
X88288904Y-102068285D01*
X88241285Y-101877809D01*
X88241285Y-101734952D01*
X88288904Y-101544476D01*
X88336523Y-101449238D01*
X88431761Y-101354000D01*
X88574619Y-101306380D01*
X88669857Y-101306380D01*
X88812714Y-101354000D01*
X88860333Y-101401619D01*
X89431761Y-101734952D02*
X89336523Y-101687333D01*
X89288904Y-101639714D01*
X89241285Y-101544476D01*
X89241285Y-101496857D01*
X89288904Y-101401619D01*
X89336523Y-101354000D01*
X89431761Y-101306380D01*
X89622238Y-101306380D01*
X89717476Y-101354000D01*
X89765095Y-101401619D01*
X89812714Y-101496857D01*
X89812714Y-101544476D01*
X89765095Y-101639714D01*
X89717476Y-101687333D01*
X89622238Y-101734952D01*
X89431761Y-101734952D01*
X89336523Y-101782571D01*
X89288904Y-101830190D01*
X89241285Y-101925428D01*
X89241285Y-102115904D01*
X89288904Y-102211142D01*
X89336523Y-102258761D01*
X89431761Y-102306380D01*
X89622238Y-102306380D01*
X89717476Y-102258761D01*
X89765095Y-102211142D01*
X89812714Y-102115904D01*
X89812714Y-101925428D01*
X89765095Y-101830190D01*
X89717476Y-101782571D01*
X89622238Y-101734952D01*
X106195904Y-116276380D02*
X106195904Y-115276380D01*
X106434000Y-115276380D01*
X106576857Y-115324000D01*
X106672095Y-115419238D01*
X106719714Y-115514476D01*
X106767333Y-115704952D01*
X106767333Y-115847809D01*
X106719714Y-116038285D01*
X106672095Y-116133523D01*
X106576857Y-116228761D01*
X106434000Y-116276380D01*
X106195904Y-116276380D01*
X107386380Y-115276380D02*
X107481619Y-115276380D01*
X107576857Y-115324000D01*
X107624476Y-115371619D01*
X107672095Y-115466857D01*
X107719714Y-115657333D01*
X107719714Y-115895428D01*
X107672095Y-116085904D01*
X107624476Y-116181142D01*
X107576857Y-116228761D01*
X107481619Y-116276380D01*
X107386380Y-116276380D01*
X107291142Y-116228761D01*
X107243523Y-116181142D01*
X107195904Y-116085904D01*
X107148285Y-115895428D01*
X107148285Y-115657333D01*
X107195904Y-115466857D01*
X107243523Y-115371619D01*
X107291142Y-115324000D01*
X107386380Y-115276380D01*
X102258904Y-114244380D02*
X102258904Y-113244380D01*
X102497000Y-113244380D01*
X102639857Y-113292000D01*
X102735095Y-113387238D01*
X102782714Y-113482476D01*
X102830333Y-113672952D01*
X102830333Y-113815809D01*
X102782714Y-114006285D01*
X102735095Y-114101523D01*
X102639857Y-114196761D01*
X102497000Y-114244380D01*
X102258904Y-114244380D01*
X103782714Y-114244380D02*
X103211285Y-114244380D01*
X103497000Y-114244380D02*
X103497000Y-113244380D01*
X103401761Y-113387238D01*
X103306523Y-113482476D01*
X103211285Y-113530095D01*
X76898666Y-128595380D02*
X76898666Y-127595380D01*
X77232000Y-128309666D01*
X77565333Y-127595380D01*
X77565333Y-128595380D01*
X78232000Y-127595380D02*
X78422476Y-127595380D01*
X78517714Y-127643000D01*
X78612952Y-127738238D01*
X78660571Y-127928714D01*
X78660571Y-128262047D01*
X78612952Y-128452523D01*
X78517714Y-128547761D01*
X78422476Y-128595380D01*
X78232000Y-128595380D01*
X78136761Y-128547761D01*
X78041523Y-128452523D01*
X77993904Y-128262047D01*
X77993904Y-127928714D01*
X78041523Y-127738238D01*
X78136761Y-127643000D01*
X78232000Y-127595380D01*
X79612952Y-128595380D02*
X79041523Y-128595380D01*
X79327238Y-128595380D02*
X79327238Y-127595380D01*
X79232000Y-127738238D01*
X79136761Y-127833476D01*
X79041523Y-127881095D01*
X77128809Y-139517380D02*
X77128809Y-138517380D01*
X78176428Y-139517380D02*
X77843095Y-139041190D01*
X77605000Y-139517380D02*
X77605000Y-138517380D01*
X77985952Y-138517380D01*
X78081190Y-138565000D01*
X78128809Y-138612619D01*
X78176428Y-138707857D01*
X78176428Y-138850714D01*
X78128809Y-138945952D01*
X78081190Y-138993571D01*
X77985952Y-139041190D01*
X77605000Y-139041190D01*
X79128809Y-139517380D02*
X78557380Y-139517380D01*
X78843095Y-139517380D02*
X78843095Y-138517380D01*
X78747857Y-138660238D01*
X78652619Y-138755476D01*
X78557380Y-138803095D01*
X112974380Y-114466666D02*
X112498190Y-114800000D01*
X112974380Y-115038095D02*
X111974380Y-115038095D01*
X111974380Y-114657142D01*
X112022000Y-114561904D01*
X112069619Y-114514285D01*
X112164857Y-114466666D01*
X112307714Y-114466666D01*
X112402952Y-114514285D01*
X112450571Y-114561904D01*
X112498190Y-114657142D01*
X112498190Y-115038095D01*
X112974380Y-113514285D02*
X112974380Y-114085714D01*
X112974380Y-113800000D02*
X111974380Y-113800000D01*
X112117238Y-113895238D01*
X112212476Y-113990476D01*
X112260095Y-114085714D01*
X85431333Y-135834380D02*
X85098000Y-135358190D01*
X84859904Y-135834380D02*
X84859904Y-134834380D01*
X85240857Y-134834380D01*
X85336095Y-134882000D01*
X85383714Y-134929619D01*
X85431333Y-135024857D01*
X85431333Y-135167714D01*
X85383714Y-135262952D01*
X85336095Y-135310571D01*
X85240857Y-135358190D01*
X84859904Y-135358190D01*
X85812285Y-134929619D02*
X85859904Y-134882000D01*
X85955142Y-134834380D01*
X86193238Y-134834380D01*
X86288476Y-134882000D01*
X86336095Y-134929619D01*
X86383714Y-135024857D01*
X86383714Y-135120095D01*
X86336095Y-135262952D01*
X85764666Y-135834380D01*
X86383714Y-135834380D01*
X107315095Y-128992380D02*
X107315095Y-129801904D01*
X107362714Y-129897142D01*
X107410333Y-129944761D01*
X107505571Y-129992380D01*
X107696047Y-129992380D01*
X107791285Y-129944761D01*
X107838904Y-129897142D01*
X107886523Y-129801904D01*
X107886523Y-128992380D01*
X108553190Y-128992380D02*
X108648428Y-128992380D01*
X108743666Y-129040000D01*
X108791285Y-129087619D01*
X108838904Y-129182857D01*
X108886523Y-129373333D01*
X108886523Y-129611428D01*
X108838904Y-129801904D01*
X108791285Y-129897142D01*
X108743666Y-129944761D01*
X108648428Y-129992380D01*
X108553190Y-129992380D01*
X108457952Y-129944761D01*
X108410333Y-129897142D01*
X108362714Y-129801904D01*
X108315095Y-129611428D01*
X108315095Y-129373333D01*
X108362714Y-129182857D01*
X108410333Y-129087619D01*
X108457952Y-129040000D01*
X108553190Y-128992380D01*
X107442095Y-138517380D02*
X107442095Y-139326904D01*
X107489714Y-139422142D01*
X107537333Y-139469761D01*
X107632571Y-139517380D01*
X107823047Y-139517380D01*
X107918285Y-139469761D01*
X107965904Y-139422142D01*
X108013523Y-139326904D01*
X108013523Y-138517380D01*
X109013523Y-139517380D02*
X108442095Y-139517380D01*
X108727809Y-139517380D02*
X108727809Y-138517380D01*
X108632571Y-138660238D01*
X108537333Y-138755476D01*
X108442095Y-138803095D01*
D14*
X88059380Y-112207523D02*
X88059380Y-113235619D01*
X88119857Y-113356571D01*
X88180333Y-113417047D01*
X88301285Y-113477523D01*
X88543190Y-113477523D01*
X88664142Y-113417047D01*
X88724619Y-113356571D01*
X88785095Y-113235619D01*
X88785095Y-112207523D01*
X89268904Y-112207523D02*
X90055095Y-112207523D01*
X89631761Y-112691333D01*
X89813190Y-112691333D01*
X89934142Y-112751809D01*
X89994619Y-112812285D01*
X90055095Y-112933238D01*
X90055095Y-113235619D01*
X89994619Y-113356571D01*
X89934142Y-113417047D01*
X89813190Y-113477523D01*
X89450333Y-113477523D01*
X89329380Y-113417047D01*
X89268904Y-113356571D01*
D13*
X99782333Y-120975380D02*
X99449000Y-120499190D01*
X99210904Y-120975380D02*
X99210904Y-119975380D01*
X99591857Y-119975380D01*
X99687095Y-120023000D01*
X99734714Y-120070619D01*
X99782333Y-120165857D01*
X99782333Y-120308714D01*
X99734714Y-120403952D01*
X99687095Y-120451571D01*
X99591857Y-120499190D01*
X99210904Y-120499190D01*
X100115666Y-119975380D02*
X100734714Y-119975380D01*
X100401380Y-120356333D01*
X100544238Y-120356333D01*
X100639476Y-120403952D01*
X100687095Y-120451571D01*
X100734714Y-120546809D01*
X100734714Y-120784904D01*
X100687095Y-120880142D01*
X100639476Y-120927761D01*
X100544238Y-120975380D01*
X100258523Y-120975380D01*
X100163285Y-120927761D01*
X100115666Y-120880142D01*
X109942333Y-109799380D02*
X109609000Y-109323190D01*
X109370904Y-109799380D02*
X109370904Y-108799380D01*
X109751857Y-108799380D01*
X109847095Y-108847000D01*
X109894714Y-108894619D01*
X109942333Y-108989857D01*
X109942333Y-109132714D01*
X109894714Y-109227952D01*
X109847095Y-109275571D01*
X109751857Y-109323190D01*
X109370904Y-109323190D01*
X110799476Y-109132714D02*
X110799476Y-109799380D01*
X110561380Y-108751761D02*
X110323285Y-109466047D01*
X110942333Y-109466047D01*
X93305333Y-90781142D02*
X93257714Y-90828761D01*
X93114857Y-90876380D01*
X93019619Y-90876380D01*
X92876761Y-90828761D01*
X92781523Y-90733523D01*
X92733904Y-90638285D01*
X92686285Y-90447809D01*
X92686285Y-90304952D01*
X92733904Y-90114476D01*
X92781523Y-90019238D01*
X92876761Y-89924000D01*
X93019619Y-89876380D01*
X93114857Y-89876380D01*
X93257714Y-89924000D01*
X93305333Y-89971619D01*
X93781523Y-90876380D02*
X93972000Y-90876380D01*
X94067238Y-90828761D01*
X94114857Y-90781142D01*
X94210095Y-90638285D01*
X94257714Y-90447809D01*
X94257714Y-90066857D01*
X94210095Y-89971619D01*
X94162476Y-89924000D01*
X94067238Y-89876380D01*
X93876761Y-89876380D01*
X93781523Y-89924000D01*
X93733904Y-89971619D01*
X93686285Y-90066857D01*
X93686285Y-90304952D01*
X93733904Y-90400190D01*
X93781523Y-90447809D01*
X93876761Y-90495428D01*
X94067238Y-90495428D01*
X94162476Y-90447809D01*
X94210095Y-90400190D01*
X94257714Y-90304952D01*
X76438333Y-101822380D02*
X76438333Y-100822380D01*
X76676428Y-100822380D01*
X76819285Y-100870000D01*
X76914523Y-100965238D01*
X76962142Y-101060476D01*
X77009761Y-101250952D01*
X77009761Y-101393809D01*
X76962142Y-101584285D01*
X76914523Y-101679523D01*
X76819285Y-101774761D01*
X76676428Y-101822380D01*
X76438333Y-101822380D01*
X77390714Y-101536666D02*
X77866904Y-101536666D01*
X77295476Y-101822380D02*
X77628809Y-100822380D01*
X77962142Y-101822380D01*
X78866904Y-101727142D02*
X78819285Y-101774761D01*
X78676428Y-101822380D01*
X78581190Y-101822380D01*
X78438333Y-101774761D01*
X78343095Y-101679523D01*
X78295476Y-101584285D01*
X78247857Y-101393809D01*
X78247857Y-101250952D01*
X78295476Y-101060476D01*
X78343095Y-100965238D01*
X78438333Y-100870000D01*
X78581190Y-100822380D01*
X78676428Y-100822380D01*
X78819285Y-100870000D01*
X78866904Y-100917619D01*
X79819285Y-101822380D02*
X79247857Y-101822380D01*
X79533571Y-101822380D02*
X79533571Y-100822380D01*
X79438333Y-100965238D01*
X79343095Y-101060476D01*
X79247857Y-101108095D01*
M02*
