M48
; DRILL file {KiCad 5.1.5+dfsg1-2build2} date lun 20 dic 2021 11:24:23
; FORMAT={-:-/ absolute / inch / decimal}
; #@! TF.CreationDate,2021-12-20T11:24:23-05:00
; #@! TF.GenerationSoftware,Kicad,Pcbnew,5.1.5+dfsg1-2build2
; #@! TF.FileFunction,Plated,1,2,PTH
FMAT,2
INCH
T1C0.0157
T2C0.0197
T3C0.0394
%
G90
G05
T1
X3.46Y-4.91
X3.46Y-5.17
X3.46Y-5.345
X3.7Y-3.645
X3.9Y-4.23
X4.52Y-5.57
X4.615Y-4.28
T2
X3.225Y-4.875
X3.255Y-5.65
X3.3Y-4.4
X3.3Y-4.805
X3.335Y-3.475
X3.46Y-3.62
X3.56Y-3.475
X3.985Y-4.87
X3.985Y-5.16
X4.655Y-5.505
X4.905Y-5.24
T3
X4.92Y-4.11
X4.92Y-4.21
X4.92Y-4.31
X3.075Y-4.535
X3.075Y-4.635
X3.075Y-4.735
X3.075Y-4.835
X3.075Y-4.935
X3.075Y-4.1
X3.075Y-4.2
X3.075Y-4.3
X3.075Y-5.16
X3.075Y-5.26
X3.075Y-5.36
X3.075Y-3.47
X3.075Y-3.57
X3.075Y-3.67
X3.075Y-3.77
X3.075Y-3.87
X4.92Y-3.475
X4.92Y-3.575
X4.92Y-3.675
X4.92Y-3.775
X4.92Y-3.875
X4.895Y-5.62
X4.895Y-5.72
X4.92Y-4.545
X4.92Y-4.645
X4.92Y-4.745
X4.92Y-4.845
X4.92Y-4.945
T3
G00X4.6306Y-6.005
M15
G01X4.7094Y-6.005
M16
G05
G00X4.6306Y-6.2412
M15
G01X4.7094Y-6.2412
M16
G05
G00X4.855Y-6.1625
M15
G01X4.855Y-6.0837
M16
G05
T0
M30
