G04 #@! TF.GenerationSoftware,KiCad,Pcbnew,5.1.5+dfsg1-2build2*
G04 #@! TF.CreationDate,2021-12-20T11:22:31-05:00*
G04 #@! TF.ProjectId,pro_SE_DCM,70726f5f-5345-45f4-9443-4d2e6b696361,rev?*
G04 #@! TF.SameCoordinates,Original*
G04 #@! TF.FileFunction,Soldermask,Top*
G04 #@! TF.FilePolarity,Negative*
%FSLAX46Y46*%
G04 Gerber Fmt 4.6, Leading zero omitted, Abs format (unit mm)*
G04 Created by KiCad (PCBNEW 5.1.5+dfsg1-2build2) date 2021-12-20 11:22:31*
%MOMM*%
%LPD*%
G04 APERTURE LIST*
%ADD10C,2.500000*%
%ADD11R,1.550000X1.300000*%
%ADD12C,0.100000*%
%ADD13R,1.700000X1.700000*%
%ADD14O,1.700000X1.700000*%
%ADD15R,3.500000X3.500000*%
%ADD16R,2.000000X3.800000*%
%ADD17R,2.000000X1.500000*%
%ADD18R,2.000000X0.900000*%
%ADD19R,0.900000X2.000000*%
%ADD20R,1.330000X1.330000*%
%ADD21R,1.525000X0.650000*%
G04 APERTURE END LIST*
D10*
X84709000Y-80899000D03*
X80899000Y-150622000D03*
X123317000Y-80899000D03*
D11*
X102197000Y-153833000D03*
X102197000Y-158333000D03*
X110147000Y-158333000D03*
X110147000Y-153833000D03*
X96050000Y-153833000D03*
X96050000Y-158333000D03*
X88100000Y-158333000D03*
X88100000Y-153833000D03*
D12*
G36*
X92428142Y-148279174D02*
G01*
X92451803Y-148282684D01*
X92475007Y-148288496D01*
X92497529Y-148296554D01*
X92519153Y-148306782D01*
X92539670Y-148319079D01*
X92558883Y-148333329D01*
X92576607Y-148349393D01*
X92592671Y-148367117D01*
X92606921Y-148386330D01*
X92619218Y-148406847D01*
X92629446Y-148428471D01*
X92637504Y-148450993D01*
X92643316Y-148474197D01*
X92646826Y-148497858D01*
X92648000Y-148521750D01*
X92648000Y-149009250D01*
X92646826Y-149033142D01*
X92643316Y-149056803D01*
X92637504Y-149080007D01*
X92629446Y-149102529D01*
X92619218Y-149124153D01*
X92606921Y-149144670D01*
X92592671Y-149163883D01*
X92576607Y-149181607D01*
X92558883Y-149197671D01*
X92539670Y-149211921D01*
X92519153Y-149224218D01*
X92497529Y-149234446D01*
X92475007Y-149242504D01*
X92451803Y-149248316D01*
X92428142Y-149251826D01*
X92404250Y-149253000D01*
X91491750Y-149253000D01*
X91467858Y-149251826D01*
X91444197Y-149248316D01*
X91420993Y-149242504D01*
X91398471Y-149234446D01*
X91376847Y-149224218D01*
X91356330Y-149211921D01*
X91337117Y-149197671D01*
X91319393Y-149181607D01*
X91303329Y-149163883D01*
X91289079Y-149144670D01*
X91276782Y-149124153D01*
X91266554Y-149102529D01*
X91258496Y-149080007D01*
X91252684Y-149056803D01*
X91249174Y-149033142D01*
X91248000Y-149009250D01*
X91248000Y-148521750D01*
X91249174Y-148497858D01*
X91252684Y-148474197D01*
X91258496Y-148450993D01*
X91266554Y-148428471D01*
X91276782Y-148406847D01*
X91289079Y-148386330D01*
X91303329Y-148367117D01*
X91319393Y-148349393D01*
X91337117Y-148333329D01*
X91356330Y-148319079D01*
X91376847Y-148306782D01*
X91398471Y-148296554D01*
X91420993Y-148288496D01*
X91444197Y-148282684D01*
X91467858Y-148279174D01*
X91491750Y-148278000D01*
X92404250Y-148278000D01*
X92428142Y-148279174D01*
G37*
G36*
X92428142Y-146404174D02*
G01*
X92451803Y-146407684D01*
X92475007Y-146413496D01*
X92497529Y-146421554D01*
X92519153Y-146431782D01*
X92539670Y-146444079D01*
X92558883Y-146458329D01*
X92576607Y-146474393D01*
X92592671Y-146492117D01*
X92606921Y-146511330D01*
X92619218Y-146531847D01*
X92629446Y-146553471D01*
X92637504Y-146575993D01*
X92643316Y-146599197D01*
X92646826Y-146622858D01*
X92648000Y-146646750D01*
X92648000Y-147134250D01*
X92646826Y-147158142D01*
X92643316Y-147181803D01*
X92637504Y-147205007D01*
X92629446Y-147227529D01*
X92619218Y-147249153D01*
X92606921Y-147269670D01*
X92592671Y-147288883D01*
X92576607Y-147306607D01*
X92558883Y-147322671D01*
X92539670Y-147336921D01*
X92519153Y-147349218D01*
X92497529Y-147359446D01*
X92475007Y-147367504D01*
X92451803Y-147373316D01*
X92428142Y-147376826D01*
X92404250Y-147378000D01*
X91491750Y-147378000D01*
X91467858Y-147376826D01*
X91444197Y-147373316D01*
X91420993Y-147367504D01*
X91398471Y-147359446D01*
X91376847Y-147349218D01*
X91356330Y-147336921D01*
X91337117Y-147322671D01*
X91319393Y-147306607D01*
X91303329Y-147288883D01*
X91289079Y-147269670D01*
X91276782Y-147249153D01*
X91266554Y-147227529D01*
X91258496Y-147205007D01*
X91252684Y-147181803D01*
X91249174Y-147158142D01*
X91248000Y-147134250D01*
X91248000Y-146646750D01*
X91249174Y-146622858D01*
X91252684Y-146599197D01*
X91258496Y-146575993D01*
X91266554Y-146553471D01*
X91276782Y-146531847D01*
X91289079Y-146511330D01*
X91303329Y-146492117D01*
X91319393Y-146474393D01*
X91337117Y-146458329D01*
X91356330Y-146444079D01*
X91376847Y-146431782D01*
X91398471Y-146421554D01*
X91420993Y-146413496D01*
X91444197Y-146407684D01*
X91467858Y-146404174D01*
X91491750Y-146403000D01*
X92404250Y-146403000D01*
X92428142Y-146404174D01*
G37*
G36*
X106525142Y-148279174D02*
G01*
X106548803Y-148282684D01*
X106572007Y-148288496D01*
X106594529Y-148296554D01*
X106616153Y-148306782D01*
X106636670Y-148319079D01*
X106655883Y-148333329D01*
X106673607Y-148349393D01*
X106689671Y-148367117D01*
X106703921Y-148386330D01*
X106716218Y-148406847D01*
X106726446Y-148428471D01*
X106734504Y-148450993D01*
X106740316Y-148474197D01*
X106743826Y-148497858D01*
X106745000Y-148521750D01*
X106745000Y-149009250D01*
X106743826Y-149033142D01*
X106740316Y-149056803D01*
X106734504Y-149080007D01*
X106726446Y-149102529D01*
X106716218Y-149124153D01*
X106703921Y-149144670D01*
X106689671Y-149163883D01*
X106673607Y-149181607D01*
X106655883Y-149197671D01*
X106636670Y-149211921D01*
X106616153Y-149224218D01*
X106594529Y-149234446D01*
X106572007Y-149242504D01*
X106548803Y-149248316D01*
X106525142Y-149251826D01*
X106501250Y-149253000D01*
X105588750Y-149253000D01*
X105564858Y-149251826D01*
X105541197Y-149248316D01*
X105517993Y-149242504D01*
X105495471Y-149234446D01*
X105473847Y-149224218D01*
X105453330Y-149211921D01*
X105434117Y-149197671D01*
X105416393Y-149181607D01*
X105400329Y-149163883D01*
X105386079Y-149144670D01*
X105373782Y-149124153D01*
X105363554Y-149102529D01*
X105355496Y-149080007D01*
X105349684Y-149056803D01*
X105346174Y-149033142D01*
X105345000Y-149009250D01*
X105345000Y-148521750D01*
X105346174Y-148497858D01*
X105349684Y-148474197D01*
X105355496Y-148450993D01*
X105363554Y-148428471D01*
X105373782Y-148406847D01*
X105386079Y-148386330D01*
X105400329Y-148367117D01*
X105416393Y-148349393D01*
X105434117Y-148333329D01*
X105453330Y-148319079D01*
X105473847Y-148306782D01*
X105495471Y-148296554D01*
X105517993Y-148288496D01*
X105541197Y-148282684D01*
X105564858Y-148279174D01*
X105588750Y-148278000D01*
X106501250Y-148278000D01*
X106525142Y-148279174D01*
G37*
G36*
X106525142Y-146404174D02*
G01*
X106548803Y-146407684D01*
X106572007Y-146413496D01*
X106594529Y-146421554D01*
X106616153Y-146431782D01*
X106636670Y-146444079D01*
X106655883Y-146458329D01*
X106673607Y-146474393D01*
X106689671Y-146492117D01*
X106703921Y-146511330D01*
X106716218Y-146531847D01*
X106726446Y-146553471D01*
X106734504Y-146575993D01*
X106740316Y-146599197D01*
X106743826Y-146622858D01*
X106745000Y-146646750D01*
X106745000Y-147134250D01*
X106743826Y-147158142D01*
X106740316Y-147181803D01*
X106734504Y-147205007D01*
X106726446Y-147227529D01*
X106716218Y-147249153D01*
X106703921Y-147269670D01*
X106689671Y-147288883D01*
X106673607Y-147306607D01*
X106655883Y-147322671D01*
X106636670Y-147336921D01*
X106616153Y-147349218D01*
X106594529Y-147359446D01*
X106572007Y-147367504D01*
X106548803Y-147373316D01*
X106525142Y-147376826D01*
X106501250Y-147378000D01*
X105588750Y-147378000D01*
X105564858Y-147376826D01*
X105541197Y-147373316D01*
X105517993Y-147367504D01*
X105495471Y-147359446D01*
X105473847Y-147349218D01*
X105453330Y-147336921D01*
X105434117Y-147322671D01*
X105416393Y-147306607D01*
X105400329Y-147288883D01*
X105386079Y-147269670D01*
X105373782Y-147249153D01*
X105363554Y-147227529D01*
X105355496Y-147205007D01*
X105349684Y-147181803D01*
X105346174Y-147158142D01*
X105345000Y-147134250D01*
X105345000Y-146646750D01*
X105346174Y-146622858D01*
X105349684Y-146599197D01*
X105355496Y-146575993D01*
X105363554Y-146553471D01*
X105373782Y-146531847D01*
X105386079Y-146511330D01*
X105400329Y-146492117D01*
X105416393Y-146474393D01*
X105434117Y-146458329D01*
X105453330Y-146444079D01*
X105473847Y-146431782D01*
X105495471Y-146421554D01*
X105517993Y-146413496D01*
X105541197Y-146407684D01*
X105564858Y-146404174D01*
X105588750Y-146403000D01*
X106501250Y-146403000D01*
X106525142Y-146404174D01*
G37*
G36*
X99540142Y-146404174D02*
G01*
X99563803Y-146407684D01*
X99587007Y-146413496D01*
X99609529Y-146421554D01*
X99631153Y-146431782D01*
X99651670Y-146444079D01*
X99670883Y-146458329D01*
X99688607Y-146474393D01*
X99704671Y-146492117D01*
X99718921Y-146511330D01*
X99731218Y-146531847D01*
X99741446Y-146553471D01*
X99749504Y-146575993D01*
X99755316Y-146599197D01*
X99758826Y-146622858D01*
X99760000Y-146646750D01*
X99760000Y-147134250D01*
X99758826Y-147158142D01*
X99755316Y-147181803D01*
X99749504Y-147205007D01*
X99741446Y-147227529D01*
X99731218Y-147249153D01*
X99718921Y-147269670D01*
X99704671Y-147288883D01*
X99688607Y-147306607D01*
X99670883Y-147322671D01*
X99651670Y-147336921D01*
X99631153Y-147349218D01*
X99609529Y-147359446D01*
X99587007Y-147367504D01*
X99563803Y-147373316D01*
X99540142Y-147376826D01*
X99516250Y-147378000D01*
X98603750Y-147378000D01*
X98579858Y-147376826D01*
X98556197Y-147373316D01*
X98532993Y-147367504D01*
X98510471Y-147359446D01*
X98488847Y-147349218D01*
X98468330Y-147336921D01*
X98449117Y-147322671D01*
X98431393Y-147306607D01*
X98415329Y-147288883D01*
X98401079Y-147269670D01*
X98388782Y-147249153D01*
X98378554Y-147227529D01*
X98370496Y-147205007D01*
X98364684Y-147181803D01*
X98361174Y-147158142D01*
X98360000Y-147134250D01*
X98360000Y-146646750D01*
X98361174Y-146622858D01*
X98364684Y-146599197D01*
X98370496Y-146575993D01*
X98378554Y-146553471D01*
X98388782Y-146531847D01*
X98401079Y-146511330D01*
X98415329Y-146492117D01*
X98431393Y-146474393D01*
X98449117Y-146458329D01*
X98468330Y-146444079D01*
X98488847Y-146431782D01*
X98510471Y-146421554D01*
X98532993Y-146413496D01*
X98556197Y-146407684D01*
X98579858Y-146404174D01*
X98603750Y-146403000D01*
X99516250Y-146403000D01*
X99540142Y-146404174D01*
G37*
G36*
X99540142Y-148279174D02*
G01*
X99563803Y-148282684D01*
X99587007Y-148288496D01*
X99609529Y-148296554D01*
X99631153Y-148306782D01*
X99651670Y-148319079D01*
X99670883Y-148333329D01*
X99688607Y-148349393D01*
X99704671Y-148367117D01*
X99718921Y-148386330D01*
X99731218Y-148406847D01*
X99741446Y-148428471D01*
X99749504Y-148450993D01*
X99755316Y-148474197D01*
X99758826Y-148497858D01*
X99760000Y-148521750D01*
X99760000Y-149009250D01*
X99758826Y-149033142D01*
X99755316Y-149056803D01*
X99749504Y-149080007D01*
X99741446Y-149102529D01*
X99731218Y-149124153D01*
X99718921Y-149144670D01*
X99704671Y-149163883D01*
X99688607Y-149181607D01*
X99670883Y-149197671D01*
X99651670Y-149211921D01*
X99631153Y-149224218D01*
X99609529Y-149234446D01*
X99587007Y-149242504D01*
X99563803Y-149248316D01*
X99540142Y-149251826D01*
X99516250Y-149253000D01*
X98603750Y-149253000D01*
X98579858Y-149251826D01*
X98556197Y-149248316D01*
X98532993Y-149242504D01*
X98510471Y-149234446D01*
X98488847Y-149224218D01*
X98468330Y-149211921D01*
X98449117Y-149197671D01*
X98431393Y-149181607D01*
X98415329Y-149163883D01*
X98401079Y-149144670D01*
X98388782Y-149124153D01*
X98378554Y-149102529D01*
X98370496Y-149080007D01*
X98364684Y-149056803D01*
X98361174Y-149033142D01*
X98360000Y-149009250D01*
X98360000Y-148521750D01*
X98361174Y-148497858D01*
X98364684Y-148474197D01*
X98370496Y-148450993D01*
X98378554Y-148428471D01*
X98388782Y-148406847D01*
X98401079Y-148386330D01*
X98415329Y-148367117D01*
X98431393Y-148349393D01*
X98449117Y-148333329D01*
X98468330Y-148319079D01*
X98488847Y-148306782D01*
X98510471Y-148296554D01*
X98532993Y-148288496D01*
X98556197Y-148282684D01*
X98579858Y-148279174D01*
X98603750Y-148278000D01*
X99516250Y-148278000D01*
X99540142Y-148279174D01*
G37*
G36*
X118209142Y-134212174D02*
G01*
X118232803Y-134215684D01*
X118256007Y-134221496D01*
X118278529Y-134229554D01*
X118300153Y-134239782D01*
X118320670Y-134252079D01*
X118339883Y-134266329D01*
X118357607Y-134282393D01*
X118373671Y-134300117D01*
X118387921Y-134319330D01*
X118400218Y-134339847D01*
X118410446Y-134361471D01*
X118418504Y-134383993D01*
X118424316Y-134407197D01*
X118427826Y-134430858D01*
X118429000Y-134454750D01*
X118429000Y-134942250D01*
X118427826Y-134966142D01*
X118424316Y-134989803D01*
X118418504Y-135013007D01*
X118410446Y-135035529D01*
X118400218Y-135057153D01*
X118387921Y-135077670D01*
X118373671Y-135096883D01*
X118357607Y-135114607D01*
X118339883Y-135130671D01*
X118320670Y-135144921D01*
X118300153Y-135157218D01*
X118278529Y-135167446D01*
X118256007Y-135175504D01*
X118232803Y-135181316D01*
X118209142Y-135184826D01*
X118185250Y-135186000D01*
X117272750Y-135186000D01*
X117248858Y-135184826D01*
X117225197Y-135181316D01*
X117201993Y-135175504D01*
X117179471Y-135167446D01*
X117157847Y-135157218D01*
X117137330Y-135144921D01*
X117118117Y-135130671D01*
X117100393Y-135114607D01*
X117084329Y-135096883D01*
X117070079Y-135077670D01*
X117057782Y-135057153D01*
X117047554Y-135035529D01*
X117039496Y-135013007D01*
X117033684Y-134989803D01*
X117030174Y-134966142D01*
X117029000Y-134942250D01*
X117029000Y-134454750D01*
X117030174Y-134430858D01*
X117033684Y-134407197D01*
X117039496Y-134383993D01*
X117047554Y-134361471D01*
X117057782Y-134339847D01*
X117070079Y-134319330D01*
X117084329Y-134300117D01*
X117100393Y-134282393D01*
X117118117Y-134266329D01*
X117137330Y-134252079D01*
X117157847Y-134239782D01*
X117179471Y-134229554D01*
X117201993Y-134221496D01*
X117225197Y-134215684D01*
X117248858Y-134212174D01*
X117272750Y-134211000D01*
X118185250Y-134211000D01*
X118209142Y-134212174D01*
G37*
G36*
X118209142Y-136087174D02*
G01*
X118232803Y-136090684D01*
X118256007Y-136096496D01*
X118278529Y-136104554D01*
X118300153Y-136114782D01*
X118320670Y-136127079D01*
X118339883Y-136141329D01*
X118357607Y-136157393D01*
X118373671Y-136175117D01*
X118387921Y-136194330D01*
X118400218Y-136214847D01*
X118410446Y-136236471D01*
X118418504Y-136258993D01*
X118424316Y-136282197D01*
X118427826Y-136305858D01*
X118429000Y-136329750D01*
X118429000Y-136817250D01*
X118427826Y-136841142D01*
X118424316Y-136864803D01*
X118418504Y-136888007D01*
X118410446Y-136910529D01*
X118400218Y-136932153D01*
X118387921Y-136952670D01*
X118373671Y-136971883D01*
X118357607Y-136989607D01*
X118339883Y-137005671D01*
X118320670Y-137019921D01*
X118300153Y-137032218D01*
X118278529Y-137042446D01*
X118256007Y-137050504D01*
X118232803Y-137056316D01*
X118209142Y-137059826D01*
X118185250Y-137061000D01*
X117272750Y-137061000D01*
X117248858Y-137059826D01*
X117225197Y-137056316D01*
X117201993Y-137050504D01*
X117179471Y-137042446D01*
X117157847Y-137032218D01*
X117137330Y-137019921D01*
X117118117Y-137005671D01*
X117100393Y-136989607D01*
X117084329Y-136971883D01*
X117070079Y-136952670D01*
X117057782Y-136932153D01*
X117047554Y-136910529D01*
X117039496Y-136888007D01*
X117033684Y-136864803D01*
X117030174Y-136841142D01*
X117029000Y-136817250D01*
X117029000Y-136329750D01*
X117030174Y-136305858D01*
X117033684Y-136282197D01*
X117039496Y-136258993D01*
X117047554Y-136236471D01*
X117057782Y-136214847D01*
X117070079Y-136194330D01*
X117084329Y-136175117D01*
X117100393Y-136157393D01*
X117118117Y-136141329D01*
X117137330Y-136127079D01*
X117157847Y-136114782D01*
X117179471Y-136104554D01*
X117201993Y-136096496D01*
X117225197Y-136090684D01*
X117248858Y-136087174D01*
X117272750Y-136086000D01*
X118185250Y-136086000D01*
X118209142Y-136087174D01*
G37*
G36*
X93466865Y-126836202D02*
G01*
X93491095Y-126839796D01*
X93514855Y-126845748D01*
X93537918Y-126854000D01*
X93560061Y-126864472D01*
X93581070Y-126877065D01*
X93600745Y-126891657D01*
X93618894Y-126908106D01*
X93635343Y-126926255D01*
X93649935Y-126945930D01*
X93662528Y-126966939D01*
X93673000Y-126989082D01*
X93681252Y-127012145D01*
X93687204Y-127035905D01*
X93690798Y-127060135D01*
X93692000Y-127084600D01*
X93692000Y-128185400D01*
X93690798Y-128209865D01*
X93687204Y-128234095D01*
X93681252Y-128257855D01*
X93673000Y-128280918D01*
X93662528Y-128303061D01*
X93649935Y-128324070D01*
X93635343Y-128343745D01*
X93618894Y-128361894D01*
X93600745Y-128378343D01*
X93581070Y-128392935D01*
X93560061Y-128405528D01*
X93537918Y-128416000D01*
X93514855Y-128424252D01*
X93491095Y-128430204D01*
X93466865Y-128433798D01*
X93442400Y-128435000D01*
X90441600Y-128435000D01*
X90417135Y-128433798D01*
X90392905Y-128430204D01*
X90369145Y-128424252D01*
X90346082Y-128416000D01*
X90323939Y-128405528D01*
X90302930Y-128392935D01*
X90283255Y-128378343D01*
X90265106Y-128361894D01*
X90248657Y-128343745D01*
X90234065Y-128324070D01*
X90221472Y-128303061D01*
X90211000Y-128280918D01*
X90202748Y-128257855D01*
X90196796Y-128234095D01*
X90193202Y-128209865D01*
X90192000Y-128185400D01*
X90192000Y-127084600D01*
X90193202Y-127060135D01*
X90196796Y-127035905D01*
X90202748Y-127012145D01*
X90211000Y-126989082D01*
X90221472Y-126966939D01*
X90234065Y-126945930D01*
X90248657Y-126926255D01*
X90265106Y-126908106D01*
X90283255Y-126891657D01*
X90302930Y-126877065D01*
X90323939Y-126864472D01*
X90346082Y-126854000D01*
X90369145Y-126845748D01*
X90392905Y-126839796D01*
X90417135Y-126836202D01*
X90441600Y-126835000D01*
X93442400Y-126835000D01*
X93466865Y-126836202D01*
G37*
G36*
X99066504Y-126836204D02*
G01*
X99090773Y-126839804D01*
X99114571Y-126845765D01*
X99137671Y-126854030D01*
X99159849Y-126864520D01*
X99180893Y-126877133D01*
X99200598Y-126891747D01*
X99218777Y-126908223D01*
X99235253Y-126926402D01*
X99249867Y-126946107D01*
X99262480Y-126967151D01*
X99272970Y-126989329D01*
X99281235Y-127012429D01*
X99287196Y-127036227D01*
X99290796Y-127060496D01*
X99292000Y-127085000D01*
X99292000Y-128185000D01*
X99290796Y-128209504D01*
X99287196Y-128233773D01*
X99281235Y-128257571D01*
X99272970Y-128280671D01*
X99262480Y-128302849D01*
X99249867Y-128323893D01*
X99235253Y-128343598D01*
X99218777Y-128361777D01*
X99200598Y-128378253D01*
X99180893Y-128392867D01*
X99159849Y-128405480D01*
X99137671Y-128415970D01*
X99114571Y-128424235D01*
X99090773Y-128430196D01*
X99066504Y-128433796D01*
X99042000Y-128435000D01*
X96042000Y-128435000D01*
X96017496Y-128433796D01*
X95993227Y-128430196D01*
X95969429Y-128424235D01*
X95946329Y-128415970D01*
X95924151Y-128405480D01*
X95903107Y-128392867D01*
X95883402Y-128378253D01*
X95865223Y-128361777D01*
X95848747Y-128343598D01*
X95834133Y-128323893D01*
X95821520Y-128302849D01*
X95811030Y-128280671D01*
X95802765Y-128257571D01*
X95796804Y-128233773D01*
X95793204Y-128209504D01*
X95792000Y-128185000D01*
X95792000Y-127085000D01*
X95793204Y-127060496D01*
X95796804Y-127036227D01*
X95802765Y-127012429D01*
X95811030Y-126989329D01*
X95821520Y-126967151D01*
X95834133Y-126946107D01*
X95848747Y-126926402D01*
X95865223Y-126908223D01*
X95883402Y-126891747D01*
X95903107Y-126877133D01*
X95924151Y-126864520D01*
X95946329Y-126854030D01*
X95969429Y-126845765D01*
X95993227Y-126839804D01*
X96017496Y-126836204D01*
X96042000Y-126835000D01*
X99042000Y-126835000D01*
X99066504Y-126836204D01*
G37*
G36*
X118209142Y-122957674D02*
G01*
X118232803Y-122961184D01*
X118256007Y-122966996D01*
X118278529Y-122975054D01*
X118300153Y-122985282D01*
X118320670Y-122997579D01*
X118339883Y-123011829D01*
X118357607Y-123027893D01*
X118373671Y-123045617D01*
X118387921Y-123064830D01*
X118400218Y-123085347D01*
X118410446Y-123106971D01*
X118418504Y-123129493D01*
X118424316Y-123152697D01*
X118427826Y-123176358D01*
X118429000Y-123200250D01*
X118429000Y-123687750D01*
X118427826Y-123711642D01*
X118424316Y-123735303D01*
X118418504Y-123758507D01*
X118410446Y-123781029D01*
X118400218Y-123802653D01*
X118387921Y-123823170D01*
X118373671Y-123842383D01*
X118357607Y-123860107D01*
X118339883Y-123876171D01*
X118320670Y-123890421D01*
X118300153Y-123902718D01*
X118278529Y-123912946D01*
X118256007Y-123921004D01*
X118232803Y-123926816D01*
X118209142Y-123930326D01*
X118185250Y-123931500D01*
X117272750Y-123931500D01*
X117248858Y-123930326D01*
X117225197Y-123926816D01*
X117201993Y-123921004D01*
X117179471Y-123912946D01*
X117157847Y-123902718D01*
X117137330Y-123890421D01*
X117118117Y-123876171D01*
X117100393Y-123860107D01*
X117084329Y-123842383D01*
X117070079Y-123823170D01*
X117057782Y-123802653D01*
X117047554Y-123781029D01*
X117039496Y-123758507D01*
X117033684Y-123735303D01*
X117030174Y-123711642D01*
X117029000Y-123687750D01*
X117029000Y-123200250D01*
X117030174Y-123176358D01*
X117033684Y-123152697D01*
X117039496Y-123129493D01*
X117047554Y-123106971D01*
X117057782Y-123085347D01*
X117070079Y-123064830D01*
X117084329Y-123045617D01*
X117100393Y-123027893D01*
X117118117Y-123011829D01*
X117137330Y-122997579D01*
X117157847Y-122985282D01*
X117179471Y-122975054D01*
X117201993Y-122966996D01*
X117225197Y-122961184D01*
X117248858Y-122957674D01*
X117272750Y-122956500D01*
X118185250Y-122956500D01*
X118209142Y-122957674D01*
G37*
G36*
X118209142Y-124832674D02*
G01*
X118232803Y-124836184D01*
X118256007Y-124841996D01*
X118278529Y-124850054D01*
X118300153Y-124860282D01*
X118320670Y-124872579D01*
X118339883Y-124886829D01*
X118357607Y-124902893D01*
X118373671Y-124920617D01*
X118387921Y-124939830D01*
X118400218Y-124960347D01*
X118410446Y-124981971D01*
X118418504Y-125004493D01*
X118424316Y-125027697D01*
X118427826Y-125051358D01*
X118429000Y-125075250D01*
X118429000Y-125562750D01*
X118427826Y-125586642D01*
X118424316Y-125610303D01*
X118418504Y-125633507D01*
X118410446Y-125656029D01*
X118400218Y-125677653D01*
X118387921Y-125698170D01*
X118373671Y-125717383D01*
X118357607Y-125735107D01*
X118339883Y-125751171D01*
X118320670Y-125765421D01*
X118300153Y-125777718D01*
X118278529Y-125787946D01*
X118256007Y-125796004D01*
X118232803Y-125801816D01*
X118209142Y-125805326D01*
X118185250Y-125806500D01*
X117272750Y-125806500D01*
X117248858Y-125805326D01*
X117225197Y-125801816D01*
X117201993Y-125796004D01*
X117179471Y-125787946D01*
X117157847Y-125777718D01*
X117137330Y-125765421D01*
X117118117Y-125751171D01*
X117100393Y-125735107D01*
X117084329Y-125717383D01*
X117070079Y-125698170D01*
X117057782Y-125677653D01*
X117047554Y-125656029D01*
X117039496Y-125633507D01*
X117033684Y-125610303D01*
X117030174Y-125586642D01*
X117029000Y-125562750D01*
X117029000Y-125075250D01*
X117030174Y-125051358D01*
X117033684Y-125027697D01*
X117039496Y-125004493D01*
X117047554Y-124981971D01*
X117057782Y-124960347D01*
X117070079Y-124939830D01*
X117084329Y-124920617D01*
X117100393Y-124902893D01*
X117118117Y-124886829D01*
X117137330Y-124872579D01*
X117157847Y-124860282D01*
X117179471Y-124850054D01*
X117201993Y-124841996D01*
X117225197Y-124836184D01*
X117248858Y-124832674D01*
X117272750Y-124831500D01*
X118185250Y-124831500D01*
X118209142Y-124832674D01*
G37*
G36*
X98939504Y-138012204D02*
G01*
X98963773Y-138015804D01*
X98987571Y-138021765D01*
X99010671Y-138030030D01*
X99032849Y-138040520D01*
X99053893Y-138053133D01*
X99073598Y-138067747D01*
X99091777Y-138084223D01*
X99108253Y-138102402D01*
X99122867Y-138122107D01*
X99135480Y-138143151D01*
X99145970Y-138165329D01*
X99154235Y-138188429D01*
X99160196Y-138212227D01*
X99163796Y-138236496D01*
X99165000Y-138261000D01*
X99165000Y-139361000D01*
X99163796Y-139385504D01*
X99160196Y-139409773D01*
X99154235Y-139433571D01*
X99145970Y-139456671D01*
X99135480Y-139478849D01*
X99122867Y-139499893D01*
X99108253Y-139519598D01*
X99091777Y-139537777D01*
X99073598Y-139554253D01*
X99053893Y-139568867D01*
X99032849Y-139581480D01*
X99010671Y-139591970D01*
X98987571Y-139600235D01*
X98963773Y-139606196D01*
X98939504Y-139609796D01*
X98915000Y-139611000D01*
X95915000Y-139611000D01*
X95890496Y-139609796D01*
X95866227Y-139606196D01*
X95842429Y-139600235D01*
X95819329Y-139591970D01*
X95797151Y-139581480D01*
X95776107Y-139568867D01*
X95756402Y-139554253D01*
X95738223Y-139537777D01*
X95721747Y-139519598D01*
X95707133Y-139499893D01*
X95694520Y-139478849D01*
X95684030Y-139456671D01*
X95675765Y-139433571D01*
X95669804Y-139409773D01*
X95666204Y-139385504D01*
X95665000Y-139361000D01*
X95665000Y-138261000D01*
X95666204Y-138236496D01*
X95669804Y-138212227D01*
X95675765Y-138188429D01*
X95684030Y-138165329D01*
X95694520Y-138143151D01*
X95707133Y-138122107D01*
X95721747Y-138102402D01*
X95738223Y-138084223D01*
X95756402Y-138067747D01*
X95776107Y-138053133D01*
X95797151Y-138040520D01*
X95819329Y-138030030D01*
X95842429Y-138021765D01*
X95866227Y-138015804D01*
X95890496Y-138012204D01*
X95915000Y-138011000D01*
X98915000Y-138011000D01*
X98939504Y-138012204D01*
G37*
G36*
X93339865Y-138012202D02*
G01*
X93364095Y-138015796D01*
X93387855Y-138021748D01*
X93410918Y-138030000D01*
X93433061Y-138040472D01*
X93454070Y-138053065D01*
X93473745Y-138067657D01*
X93491894Y-138084106D01*
X93508343Y-138102255D01*
X93522935Y-138121930D01*
X93535528Y-138142939D01*
X93546000Y-138165082D01*
X93554252Y-138188145D01*
X93560204Y-138211905D01*
X93563798Y-138236135D01*
X93565000Y-138260600D01*
X93565000Y-139361400D01*
X93563798Y-139385865D01*
X93560204Y-139410095D01*
X93554252Y-139433855D01*
X93546000Y-139456918D01*
X93535528Y-139479061D01*
X93522935Y-139500070D01*
X93508343Y-139519745D01*
X93491894Y-139537894D01*
X93473745Y-139554343D01*
X93454070Y-139568935D01*
X93433061Y-139581528D01*
X93410918Y-139592000D01*
X93387855Y-139600252D01*
X93364095Y-139606204D01*
X93339865Y-139609798D01*
X93315400Y-139611000D01*
X90314600Y-139611000D01*
X90290135Y-139609798D01*
X90265905Y-139606204D01*
X90242145Y-139600252D01*
X90219082Y-139592000D01*
X90196939Y-139581528D01*
X90175930Y-139568935D01*
X90156255Y-139554343D01*
X90138106Y-139537894D01*
X90121657Y-139519745D01*
X90107065Y-139500070D01*
X90094472Y-139479061D01*
X90084000Y-139456918D01*
X90075748Y-139433855D01*
X90069796Y-139410095D01*
X90066202Y-139385865D01*
X90065000Y-139361400D01*
X90065000Y-138260600D01*
X90066202Y-138236135D01*
X90069796Y-138211905D01*
X90075748Y-138188145D01*
X90084000Y-138165082D01*
X90094472Y-138142939D01*
X90107065Y-138121930D01*
X90121657Y-138102255D01*
X90138106Y-138084106D01*
X90156255Y-138067657D01*
X90175930Y-138053065D01*
X90196939Y-138040472D01*
X90219082Y-138030000D01*
X90242145Y-138021748D01*
X90265905Y-138015796D01*
X90290135Y-138012202D01*
X90314600Y-138011000D01*
X93315400Y-138011000D01*
X93339865Y-138012202D01*
G37*
G36*
X88357142Y-103187174D02*
G01*
X88380803Y-103190684D01*
X88404007Y-103196496D01*
X88426529Y-103204554D01*
X88448153Y-103214782D01*
X88468670Y-103227079D01*
X88487883Y-103241329D01*
X88505607Y-103257393D01*
X88521671Y-103275117D01*
X88535921Y-103294330D01*
X88548218Y-103314847D01*
X88558446Y-103336471D01*
X88566504Y-103358993D01*
X88572316Y-103382197D01*
X88575826Y-103405858D01*
X88577000Y-103429750D01*
X88577000Y-104342250D01*
X88575826Y-104366142D01*
X88572316Y-104389803D01*
X88566504Y-104413007D01*
X88558446Y-104435529D01*
X88548218Y-104457153D01*
X88535921Y-104477670D01*
X88521671Y-104496883D01*
X88505607Y-104514607D01*
X88487883Y-104530671D01*
X88468670Y-104544921D01*
X88448153Y-104557218D01*
X88426529Y-104567446D01*
X88404007Y-104575504D01*
X88380803Y-104581316D01*
X88357142Y-104584826D01*
X88333250Y-104586000D01*
X87845750Y-104586000D01*
X87821858Y-104584826D01*
X87798197Y-104581316D01*
X87774993Y-104575504D01*
X87752471Y-104567446D01*
X87730847Y-104557218D01*
X87710330Y-104544921D01*
X87691117Y-104530671D01*
X87673393Y-104514607D01*
X87657329Y-104496883D01*
X87643079Y-104477670D01*
X87630782Y-104457153D01*
X87620554Y-104435529D01*
X87612496Y-104413007D01*
X87606684Y-104389803D01*
X87603174Y-104366142D01*
X87602000Y-104342250D01*
X87602000Y-103429750D01*
X87603174Y-103405858D01*
X87606684Y-103382197D01*
X87612496Y-103358993D01*
X87620554Y-103336471D01*
X87630782Y-103314847D01*
X87643079Y-103294330D01*
X87657329Y-103275117D01*
X87673393Y-103257393D01*
X87691117Y-103241329D01*
X87710330Y-103227079D01*
X87730847Y-103214782D01*
X87752471Y-103204554D01*
X87774993Y-103196496D01*
X87798197Y-103190684D01*
X87821858Y-103187174D01*
X87845750Y-103186000D01*
X88333250Y-103186000D01*
X88357142Y-103187174D01*
G37*
G36*
X90232142Y-103187174D02*
G01*
X90255803Y-103190684D01*
X90279007Y-103196496D01*
X90301529Y-103204554D01*
X90323153Y-103214782D01*
X90343670Y-103227079D01*
X90362883Y-103241329D01*
X90380607Y-103257393D01*
X90396671Y-103275117D01*
X90410921Y-103294330D01*
X90423218Y-103314847D01*
X90433446Y-103336471D01*
X90441504Y-103358993D01*
X90447316Y-103382197D01*
X90450826Y-103405858D01*
X90452000Y-103429750D01*
X90452000Y-104342250D01*
X90450826Y-104366142D01*
X90447316Y-104389803D01*
X90441504Y-104413007D01*
X90433446Y-104435529D01*
X90423218Y-104457153D01*
X90410921Y-104477670D01*
X90396671Y-104496883D01*
X90380607Y-104514607D01*
X90362883Y-104530671D01*
X90343670Y-104544921D01*
X90323153Y-104557218D01*
X90301529Y-104567446D01*
X90279007Y-104575504D01*
X90255803Y-104581316D01*
X90232142Y-104584826D01*
X90208250Y-104586000D01*
X89720750Y-104586000D01*
X89696858Y-104584826D01*
X89673197Y-104581316D01*
X89649993Y-104575504D01*
X89627471Y-104567446D01*
X89605847Y-104557218D01*
X89585330Y-104544921D01*
X89566117Y-104530671D01*
X89548393Y-104514607D01*
X89532329Y-104496883D01*
X89518079Y-104477670D01*
X89505782Y-104457153D01*
X89495554Y-104435529D01*
X89487496Y-104413007D01*
X89481684Y-104389803D01*
X89478174Y-104366142D01*
X89477000Y-104342250D01*
X89477000Y-103429750D01*
X89478174Y-103405858D01*
X89481684Y-103382197D01*
X89487496Y-103358993D01*
X89495554Y-103336471D01*
X89505782Y-103314847D01*
X89518079Y-103294330D01*
X89532329Y-103275117D01*
X89548393Y-103257393D01*
X89566117Y-103241329D01*
X89585330Y-103227079D01*
X89605847Y-103214782D01*
X89627471Y-103204554D01*
X89649993Y-103196496D01*
X89673197Y-103190684D01*
X89696858Y-103187174D01*
X89720750Y-103186000D01*
X90208250Y-103186000D01*
X90232142Y-103187174D01*
G37*
G36*
X110257504Y-117236204D02*
G01*
X110281773Y-117239804D01*
X110305571Y-117245765D01*
X110328671Y-117254030D01*
X110350849Y-117264520D01*
X110371893Y-117277133D01*
X110391598Y-117291747D01*
X110409777Y-117308223D01*
X110426253Y-117326402D01*
X110440867Y-117346107D01*
X110453480Y-117367151D01*
X110463970Y-117389329D01*
X110472235Y-117412429D01*
X110478196Y-117436227D01*
X110481796Y-117460496D01*
X110483000Y-117485000D01*
X110483000Y-118735000D01*
X110481796Y-118759504D01*
X110478196Y-118783773D01*
X110472235Y-118807571D01*
X110463970Y-118830671D01*
X110453480Y-118852849D01*
X110440867Y-118873893D01*
X110426253Y-118893598D01*
X110409777Y-118911777D01*
X110391598Y-118928253D01*
X110371893Y-118942867D01*
X110350849Y-118955480D01*
X110328671Y-118965970D01*
X110305571Y-118974235D01*
X110281773Y-118980196D01*
X110257504Y-118983796D01*
X110233000Y-118985000D01*
X109483000Y-118985000D01*
X109458496Y-118983796D01*
X109434227Y-118980196D01*
X109410429Y-118974235D01*
X109387329Y-118965970D01*
X109365151Y-118955480D01*
X109344107Y-118942867D01*
X109324402Y-118928253D01*
X109306223Y-118911777D01*
X109289747Y-118893598D01*
X109275133Y-118873893D01*
X109262520Y-118852849D01*
X109252030Y-118830671D01*
X109243765Y-118807571D01*
X109237804Y-118783773D01*
X109234204Y-118759504D01*
X109233000Y-118735000D01*
X109233000Y-117485000D01*
X109234204Y-117460496D01*
X109237804Y-117436227D01*
X109243765Y-117412429D01*
X109252030Y-117389329D01*
X109262520Y-117367151D01*
X109275133Y-117346107D01*
X109289747Y-117326402D01*
X109306223Y-117308223D01*
X109324402Y-117291747D01*
X109344107Y-117277133D01*
X109365151Y-117264520D01*
X109387329Y-117254030D01*
X109410429Y-117245765D01*
X109434227Y-117239804D01*
X109458496Y-117236204D01*
X109483000Y-117235000D01*
X110233000Y-117235000D01*
X110257504Y-117236204D01*
G37*
G36*
X107457504Y-117236204D02*
G01*
X107481773Y-117239804D01*
X107505571Y-117245765D01*
X107528671Y-117254030D01*
X107550849Y-117264520D01*
X107571893Y-117277133D01*
X107591598Y-117291747D01*
X107609777Y-117308223D01*
X107626253Y-117326402D01*
X107640867Y-117346107D01*
X107653480Y-117367151D01*
X107663970Y-117389329D01*
X107672235Y-117412429D01*
X107678196Y-117436227D01*
X107681796Y-117460496D01*
X107683000Y-117485000D01*
X107683000Y-118735000D01*
X107681796Y-118759504D01*
X107678196Y-118783773D01*
X107672235Y-118807571D01*
X107663970Y-118830671D01*
X107653480Y-118852849D01*
X107640867Y-118873893D01*
X107626253Y-118893598D01*
X107609777Y-118911777D01*
X107591598Y-118928253D01*
X107571893Y-118942867D01*
X107550849Y-118955480D01*
X107528671Y-118965970D01*
X107505571Y-118974235D01*
X107481773Y-118980196D01*
X107457504Y-118983796D01*
X107433000Y-118985000D01*
X106683000Y-118985000D01*
X106658496Y-118983796D01*
X106634227Y-118980196D01*
X106610429Y-118974235D01*
X106587329Y-118965970D01*
X106565151Y-118955480D01*
X106544107Y-118942867D01*
X106524402Y-118928253D01*
X106506223Y-118911777D01*
X106489747Y-118893598D01*
X106475133Y-118873893D01*
X106462520Y-118852849D01*
X106452030Y-118830671D01*
X106443765Y-118807571D01*
X106437804Y-118783773D01*
X106434204Y-118759504D01*
X106433000Y-118735000D01*
X106433000Y-117485000D01*
X106434204Y-117460496D01*
X106437804Y-117436227D01*
X106443765Y-117412429D01*
X106452030Y-117389329D01*
X106462520Y-117367151D01*
X106475133Y-117346107D01*
X106489747Y-117326402D01*
X106506223Y-117308223D01*
X106524402Y-117291747D01*
X106544107Y-117277133D01*
X106565151Y-117264520D01*
X106587329Y-117254030D01*
X106610429Y-117245765D01*
X106634227Y-117239804D01*
X106658496Y-117236204D01*
X106683000Y-117235000D01*
X107433000Y-117235000D01*
X107457504Y-117236204D01*
G37*
G36*
X103272504Y-110632204D02*
G01*
X103296773Y-110635804D01*
X103320571Y-110641765D01*
X103343671Y-110650030D01*
X103365849Y-110660520D01*
X103386893Y-110673133D01*
X103406598Y-110687747D01*
X103424777Y-110704223D01*
X103441253Y-110722402D01*
X103455867Y-110742107D01*
X103468480Y-110763151D01*
X103478970Y-110785329D01*
X103487235Y-110808429D01*
X103493196Y-110832227D01*
X103496796Y-110856496D01*
X103498000Y-110881000D01*
X103498000Y-112131000D01*
X103496796Y-112155504D01*
X103493196Y-112179773D01*
X103487235Y-112203571D01*
X103478970Y-112226671D01*
X103468480Y-112248849D01*
X103455867Y-112269893D01*
X103441253Y-112289598D01*
X103424777Y-112307777D01*
X103406598Y-112324253D01*
X103386893Y-112338867D01*
X103365849Y-112351480D01*
X103343671Y-112361970D01*
X103320571Y-112370235D01*
X103296773Y-112376196D01*
X103272504Y-112379796D01*
X103248000Y-112381000D01*
X102498000Y-112381000D01*
X102473496Y-112379796D01*
X102449227Y-112376196D01*
X102425429Y-112370235D01*
X102402329Y-112361970D01*
X102380151Y-112351480D01*
X102359107Y-112338867D01*
X102339402Y-112324253D01*
X102321223Y-112307777D01*
X102304747Y-112289598D01*
X102290133Y-112269893D01*
X102277520Y-112248849D01*
X102267030Y-112226671D01*
X102258765Y-112203571D01*
X102252804Y-112179773D01*
X102249204Y-112155504D01*
X102248000Y-112131000D01*
X102248000Y-110881000D01*
X102249204Y-110856496D01*
X102252804Y-110832227D01*
X102258765Y-110808429D01*
X102267030Y-110785329D01*
X102277520Y-110763151D01*
X102290133Y-110742107D01*
X102304747Y-110722402D01*
X102321223Y-110704223D01*
X102339402Y-110687747D01*
X102359107Y-110673133D01*
X102380151Y-110660520D01*
X102402329Y-110650030D01*
X102425429Y-110641765D01*
X102449227Y-110635804D01*
X102473496Y-110632204D01*
X102498000Y-110631000D01*
X103248000Y-110631000D01*
X103272504Y-110632204D01*
G37*
G36*
X100472504Y-110632204D02*
G01*
X100496773Y-110635804D01*
X100520571Y-110641765D01*
X100543671Y-110650030D01*
X100565849Y-110660520D01*
X100586893Y-110673133D01*
X100606598Y-110687747D01*
X100624777Y-110704223D01*
X100641253Y-110722402D01*
X100655867Y-110742107D01*
X100668480Y-110763151D01*
X100678970Y-110785329D01*
X100687235Y-110808429D01*
X100693196Y-110832227D01*
X100696796Y-110856496D01*
X100698000Y-110881000D01*
X100698000Y-112131000D01*
X100696796Y-112155504D01*
X100693196Y-112179773D01*
X100687235Y-112203571D01*
X100678970Y-112226671D01*
X100668480Y-112248849D01*
X100655867Y-112269893D01*
X100641253Y-112289598D01*
X100624777Y-112307777D01*
X100606598Y-112324253D01*
X100586893Y-112338867D01*
X100565849Y-112351480D01*
X100543671Y-112361970D01*
X100520571Y-112370235D01*
X100496773Y-112376196D01*
X100472504Y-112379796D01*
X100448000Y-112381000D01*
X99698000Y-112381000D01*
X99673496Y-112379796D01*
X99649227Y-112376196D01*
X99625429Y-112370235D01*
X99602329Y-112361970D01*
X99580151Y-112351480D01*
X99559107Y-112338867D01*
X99539402Y-112324253D01*
X99521223Y-112307777D01*
X99504747Y-112289598D01*
X99490133Y-112269893D01*
X99477520Y-112248849D01*
X99467030Y-112226671D01*
X99458765Y-112203571D01*
X99452804Y-112179773D01*
X99449204Y-112155504D01*
X99448000Y-112131000D01*
X99448000Y-110881000D01*
X99449204Y-110856496D01*
X99452804Y-110832227D01*
X99458765Y-110808429D01*
X99467030Y-110785329D01*
X99477520Y-110763151D01*
X99490133Y-110742107D01*
X99504747Y-110722402D01*
X99521223Y-110704223D01*
X99539402Y-110687747D01*
X99559107Y-110673133D01*
X99580151Y-110660520D01*
X99602329Y-110650030D01*
X99625429Y-110641765D01*
X99649227Y-110635804D01*
X99673496Y-110632204D01*
X99698000Y-110631000D01*
X100448000Y-110631000D01*
X100472504Y-110632204D01*
G37*
D13*
X124333000Y-145288000D03*
D14*
X124333000Y-142748000D03*
D13*
X78105000Y-115189000D03*
D14*
X78105000Y-117729000D03*
X78105000Y-120269000D03*
X78105000Y-122809000D03*
X78105000Y-125349000D03*
X124968000Y-98425000D03*
X124968000Y-95885000D03*
X124968000Y-93345000D03*
X124968000Y-90805000D03*
D13*
X124968000Y-88265000D03*
D14*
X78105000Y-98298000D03*
X78105000Y-95758000D03*
X78105000Y-93218000D03*
X78105000Y-90678000D03*
D13*
X78105000Y-88138000D03*
D14*
X124968000Y-125603000D03*
X124968000Y-123063000D03*
X124968000Y-120523000D03*
X124968000Y-117983000D03*
D13*
X124968000Y-115443000D03*
D14*
X78105000Y-136144000D03*
X78105000Y-133604000D03*
D13*
X78105000Y-131064000D03*
D14*
X124968000Y-109474000D03*
X124968000Y-106934000D03*
D13*
X124968000Y-104394000D03*
D15*
X118618000Y-152527000D03*
D12*
G36*
X119691513Y-157030611D02*
G01*
X119764318Y-157041411D01*
X119835714Y-157059295D01*
X119905013Y-157084090D01*
X119971548Y-157115559D01*
X120034678Y-157153398D01*
X120093795Y-157197242D01*
X120148330Y-157246670D01*
X120197758Y-157301205D01*
X120241602Y-157360322D01*
X120279441Y-157423452D01*
X120310910Y-157489987D01*
X120335705Y-157559286D01*
X120353589Y-157630682D01*
X120364389Y-157703487D01*
X120368000Y-157777000D01*
X120368000Y-159277000D01*
X120364389Y-159350513D01*
X120353589Y-159423318D01*
X120335705Y-159494714D01*
X120310910Y-159564013D01*
X120279441Y-159630548D01*
X120241602Y-159693678D01*
X120197758Y-159752795D01*
X120148330Y-159807330D01*
X120093795Y-159856758D01*
X120034678Y-159900602D01*
X119971548Y-159938441D01*
X119905013Y-159969910D01*
X119835714Y-159994705D01*
X119764318Y-160012589D01*
X119691513Y-160023389D01*
X119618000Y-160027000D01*
X117618000Y-160027000D01*
X117544487Y-160023389D01*
X117471682Y-160012589D01*
X117400286Y-159994705D01*
X117330987Y-159969910D01*
X117264452Y-159938441D01*
X117201322Y-159900602D01*
X117142205Y-159856758D01*
X117087670Y-159807330D01*
X117038242Y-159752795D01*
X116994398Y-159693678D01*
X116956559Y-159630548D01*
X116925090Y-159564013D01*
X116900295Y-159494714D01*
X116882411Y-159423318D01*
X116871611Y-159350513D01*
X116868000Y-159277000D01*
X116868000Y-157777000D01*
X116871611Y-157703487D01*
X116882411Y-157630682D01*
X116900295Y-157559286D01*
X116925090Y-157489987D01*
X116956559Y-157423452D01*
X116994398Y-157360322D01*
X117038242Y-157301205D01*
X117087670Y-157246670D01*
X117142205Y-157197242D01*
X117201322Y-157153398D01*
X117264452Y-157115559D01*
X117330987Y-157084090D01*
X117400286Y-157059295D01*
X117471682Y-157041411D01*
X117544487Y-157030611D01*
X117618000Y-157027000D01*
X119618000Y-157027000D01*
X119691513Y-157030611D01*
G37*
G36*
X124278765Y-153781213D02*
G01*
X124363704Y-153793813D01*
X124446999Y-153814677D01*
X124527848Y-153843605D01*
X124605472Y-153880319D01*
X124679124Y-153924464D01*
X124748094Y-153975616D01*
X124811718Y-154033282D01*
X124869384Y-154096906D01*
X124920536Y-154165876D01*
X124964681Y-154239528D01*
X125001395Y-154317152D01*
X125030323Y-154398001D01*
X125051187Y-154481296D01*
X125063787Y-154566235D01*
X125068000Y-154652000D01*
X125068000Y-156402000D01*
X125063787Y-156487765D01*
X125051187Y-156572704D01*
X125030323Y-156655999D01*
X125001395Y-156736848D01*
X124964681Y-156814472D01*
X124920536Y-156888124D01*
X124869384Y-156957094D01*
X124811718Y-157020718D01*
X124748094Y-157078384D01*
X124679124Y-157129536D01*
X124605472Y-157173681D01*
X124527848Y-157210395D01*
X124446999Y-157239323D01*
X124363704Y-157260187D01*
X124278765Y-157272787D01*
X124193000Y-157277000D01*
X122443000Y-157277000D01*
X122357235Y-157272787D01*
X122272296Y-157260187D01*
X122189001Y-157239323D01*
X122108152Y-157210395D01*
X122030528Y-157173681D01*
X121956876Y-157129536D01*
X121887906Y-157078384D01*
X121824282Y-157020718D01*
X121766616Y-156957094D01*
X121715464Y-156888124D01*
X121671319Y-156814472D01*
X121634605Y-156736848D01*
X121605677Y-156655999D01*
X121584813Y-156572704D01*
X121572213Y-156487765D01*
X121568000Y-156402000D01*
X121568000Y-154652000D01*
X121572213Y-154566235D01*
X121584813Y-154481296D01*
X121605677Y-154398001D01*
X121634605Y-154317152D01*
X121671319Y-154239528D01*
X121715464Y-154165876D01*
X121766616Y-154096906D01*
X121824282Y-154033282D01*
X121887906Y-153975616D01*
X121956876Y-153924464D01*
X122030528Y-153880319D01*
X122108152Y-153843605D01*
X122189001Y-153814677D01*
X122272296Y-153793813D01*
X122357235Y-153781213D01*
X122443000Y-153777000D01*
X124193000Y-153777000D01*
X124278765Y-153781213D01*
G37*
G36*
X115330504Y-113682204D02*
G01*
X115354773Y-113685804D01*
X115378571Y-113691765D01*
X115401671Y-113700030D01*
X115423849Y-113710520D01*
X115444893Y-113723133D01*
X115464598Y-113737747D01*
X115482777Y-113754223D01*
X115499253Y-113772402D01*
X115513867Y-113792107D01*
X115526480Y-113813151D01*
X115536970Y-113835329D01*
X115545235Y-113858429D01*
X115551196Y-113882227D01*
X115554796Y-113906496D01*
X115556000Y-113931000D01*
X115556000Y-114681000D01*
X115554796Y-114705504D01*
X115551196Y-114729773D01*
X115545235Y-114753571D01*
X115536970Y-114776671D01*
X115526480Y-114798849D01*
X115513867Y-114819893D01*
X115499253Y-114839598D01*
X115482777Y-114857777D01*
X115464598Y-114874253D01*
X115444893Y-114888867D01*
X115423849Y-114901480D01*
X115401671Y-114911970D01*
X115378571Y-114920235D01*
X115354773Y-114926196D01*
X115330504Y-114929796D01*
X115306000Y-114931000D01*
X114056000Y-114931000D01*
X114031496Y-114929796D01*
X114007227Y-114926196D01*
X113983429Y-114920235D01*
X113960329Y-114911970D01*
X113938151Y-114901480D01*
X113917107Y-114888867D01*
X113897402Y-114874253D01*
X113879223Y-114857777D01*
X113862747Y-114839598D01*
X113848133Y-114819893D01*
X113835520Y-114798849D01*
X113825030Y-114776671D01*
X113816765Y-114753571D01*
X113810804Y-114729773D01*
X113807204Y-114705504D01*
X113806000Y-114681000D01*
X113806000Y-113931000D01*
X113807204Y-113906496D01*
X113810804Y-113882227D01*
X113816765Y-113858429D01*
X113825030Y-113835329D01*
X113835520Y-113813151D01*
X113848133Y-113792107D01*
X113862747Y-113772402D01*
X113879223Y-113754223D01*
X113897402Y-113737747D01*
X113917107Y-113723133D01*
X113938151Y-113710520D01*
X113960329Y-113700030D01*
X113983429Y-113691765D01*
X114007227Y-113685804D01*
X114031496Y-113682204D01*
X114056000Y-113681000D01*
X115306000Y-113681000D01*
X115330504Y-113682204D01*
G37*
G36*
X115330504Y-110882204D02*
G01*
X115354773Y-110885804D01*
X115378571Y-110891765D01*
X115401671Y-110900030D01*
X115423849Y-110910520D01*
X115444893Y-110923133D01*
X115464598Y-110937747D01*
X115482777Y-110954223D01*
X115499253Y-110972402D01*
X115513867Y-110992107D01*
X115526480Y-111013151D01*
X115536970Y-111035329D01*
X115545235Y-111058429D01*
X115551196Y-111082227D01*
X115554796Y-111106496D01*
X115556000Y-111131000D01*
X115556000Y-111881000D01*
X115554796Y-111905504D01*
X115551196Y-111929773D01*
X115545235Y-111953571D01*
X115536970Y-111976671D01*
X115526480Y-111998849D01*
X115513867Y-112019893D01*
X115499253Y-112039598D01*
X115482777Y-112057777D01*
X115464598Y-112074253D01*
X115444893Y-112088867D01*
X115423849Y-112101480D01*
X115401671Y-112111970D01*
X115378571Y-112120235D01*
X115354773Y-112126196D01*
X115330504Y-112129796D01*
X115306000Y-112131000D01*
X114056000Y-112131000D01*
X114031496Y-112129796D01*
X114007227Y-112126196D01*
X113983429Y-112120235D01*
X113960329Y-112111970D01*
X113938151Y-112101480D01*
X113917107Y-112088867D01*
X113897402Y-112074253D01*
X113879223Y-112057777D01*
X113862747Y-112039598D01*
X113848133Y-112019893D01*
X113835520Y-111998849D01*
X113825030Y-111976671D01*
X113816765Y-111953571D01*
X113810804Y-111929773D01*
X113807204Y-111905504D01*
X113806000Y-111881000D01*
X113806000Y-111131000D01*
X113807204Y-111106496D01*
X113810804Y-111082227D01*
X113816765Y-111058429D01*
X113825030Y-111035329D01*
X113835520Y-111013151D01*
X113848133Y-110992107D01*
X113862747Y-110972402D01*
X113879223Y-110954223D01*
X113897402Y-110937747D01*
X113917107Y-110923133D01*
X113938151Y-110910520D01*
X113960329Y-110900030D01*
X113983429Y-110891765D01*
X114007227Y-110885804D01*
X114031496Y-110882204D01*
X114056000Y-110881000D01*
X115306000Y-110881000D01*
X115330504Y-110882204D01*
G37*
G36*
X86247504Y-132729204D02*
G01*
X86271773Y-132732804D01*
X86295571Y-132738765D01*
X86318671Y-132747030D01*
X86340849Y-132757520D01*
X86361893Y-132770133D01*
X86381598Y-132784747D01*
X86399777Y-132801223D01*
X86416253Y-132819402D01*
X86430867Y-132839107D01*
X86443480Y-132860151D01*
X86453970Y-132882329D01*
X86462235Y-132905429D01*
X86468196Y-132929227D01*
X86471796Y-132953496D01*
X86473000Y-132978000D01*
X86473000Y-133728000D01*
X86471796Y-133752504D01*
X86468196Y-133776773D01*
X86462235Y-133800571D01*
X86453970Y-133823671D01*
X86443480Y-133845849D01*
X86430867Y-133866893D01*
X86416253Y-133886598D01*
X86399777Y-133904777D01*
X86381598Y-133921253D01*
X86361893Y-133935867D01*
X86340849Y-133948480D01*
X86318671Y-133958970D01*
X86295571Y-133967235D01*
X86271773Y-133973196D01*
X86247504Y-133976796D01*
X86223000Y-133978000D01*
X84973000Y-133978000D01*
X84948496Y-133976796D01*
X84924227Y-133973196D01*
X84900429Y-133967235D01*
X84877329Y-133958970D01*
X84855151Y-133948480D01*
X84834107Y-133935867D01*
X84814402Y-133921253D01*
X84796223Y-133904777D01*
X84779747Y-133886598D01*
X84765133Y-133866893D01*
X84752520Y-133845849D01*
X84742030Y-133823671D01*
X84733765Y-133800571D01*
X84727804Y-133776773D01*
X84724204Y-133752504D01*
X84723000Y-133728000D01*
X84723000Y-132978000D01*
X84724204Y-132953496D01*
X84727804Y-132929227D01*
X84733765Y-132905429D01*
X84742030Y-132882329D01*
X84752520Y-132860151D01*
X84765133Y-132839107D01*
X84779747Y-132819402D01*
X84796223Y-132801223D01*
X84814402Y-132784747D01*
X84834107Y-132770133D01*
X84855151Y-132757520D01*
X84877329Y-132747030D01*
X84900429Y-132738765D01*
X84924227Y-132732804D01*
X84948496Y-132729204D01*
X84973000Y-132728000D01*
X86223000Y-132728000D01*
X86247504Y-132729204D01*
G37*
G36*
X86247504Y-129929204D02*
G01*
X86271773Y-129932804D01*
X86295571Y-129938765D01*
X86318671Y-129947030D01*
X86340849Y-129957520D01*
X86361893Y-129970133D01*
X86381598Y-129984747D01*
X86399777Y-130001223D01*
X86416253Y-130019402D01*
X86430867Y-130039107D01*
X86443480Y-130060151D01*
X86453970Y-130082329D01*
X86462235Y-130105429D01*
X86468196Y-130129227D01*
X86471796Y-130153496D01*
X86473000Y-130178000D01*
X86473000Y-130928000D01*
X86471796Y-130952504D01*
X86468196Y-130976773D01*
X86462235Y-131000571D01*
X86453970Y-131023671D01*
X86443480Y-131045849D01*
X86430867Y-131066893D01*
X86416253Y-131086598D01*
X86399777Y-131104777D01*
X86381598Y-131121253D01*
X86361893Y-131135867D01*
X86340849Y-131148480D01*
X86318671Y-131158970D01*
X86295571Y-131167235D01*
X86271773Y-131173196D01*
X86247504Y-131176796D01*
X86223000Y-131178000D01*
X84973000Y-131178000D01*
X84948496Y-131176796D01*
X84924227Y-131173196D01*
X84900429Y-131167235D01*
X84877329Y-131158970D01*
X84855151Y-131148480D01*
X84834107Y-131135867D01*
X84814402Y-131121253D01*
X84796223Y-131104777D01*
X84779747Y-131086598D01*
X84765133Y-131066893D01*
X84752520Y-131045849D01*
X84742030Y-131023671D01*
X84733765Y-131000571D01*
X84727804Y-130976773D01*
X84724204Y-130952504D01*
X84723000Y-130928000D01*
X84723000Y-130178000D01*
X84724204Y-130153496D01*
X84727804Y-130129227D01*
X84733765Y-130105429D01*
X84742030Y-130082329D01*
X84752520Y-130060151D01*
X84765133Y-130039107D01*
X84779747Y-130019402D01*
X84796223Y-130001223D01*
X84814402Y-129984747D01*
X84834107Y-129970133D01*
X84855151Y-129957520D01*
X84877329Y-129947030D01*
X84900429Y-129938765D01*
X84924227Y-129932804D01*
X84948496Y-129929204D01*
X84973000Y-129928000D01*
X86223000Y-129928000D01*
X86247504Y-129929204D01*
G37*
D16*
X104927000Y-127635000D03*
D17*
X111227000Y-127635000D03*
X111227000Y-125335000D03*
X111227000Y-129935000D03*
X111227000Y-141111000D03*
X111227000Y-136511000D03*
X111227000Y-138811000D03*
D16*
X104927000Y-138811000D03*
D18*
X98434000Y-86307000D03*
X98434000Y-87577000D03*
X98434000Y-88847000D03*
X98434000Y-90117000D03*
X98434000Y-91387000D03*
X98434000Y-92657000D03*
X98434000Y-93927000D03*
X98434000Y-95197000D03*
X98434000Y-96467000D03*
X98434000Y-97737000D03*
X98434000Y-99007000D03*
X98434000Y-100277000D03*
X98434000Y-101547000D03*
X98434000Y-102817000D03*
D19*
X101219000Y-103817000D03*
X102489000Y-103817000D03*
X103759000Y-103817000D03*
X105029000Y-103817000D03*
X106299000Y-103817000D03*
X107569000Y-103817000D03*
X108839000Y-103817000D03*
X110109000Y-103817000D03*
X111379000Y-103817000D03*
X112649000Y-103817000D03*
D18*
X115434000Y-102817000D03*
X115434000Y-101547000D03*
X115434000Y-100277000D03*
X115434000Y-99007000D03*
X115434000Y-97737000D03*
X115434000Y-96467000D03*
X115434000Y-95197000D03*
X115434000Y-93927000D03*
X115434000Y-92657000D03*
X115434000Y-91387000D03*
X115434000Y-90117000D03*
X115434000Y-88847000D03*
X115434000Y-87577000D03*
X115434000Y-86307000D03*
D20*
X104099000Y-91972000D03*
X104099000Y-93807000D03*
X104099000Y-95642000D03*
X105934000Y-95642000D03*
X107769000Y-95642000D03*
X107769000Y-93807000D03*
X107769000Y-91972000D03*
X105934000Y-91972000D03*
X105934000Y-93807000D03*
D21*
X91739000Y-117348000D03*
X91739000Y-116078000D03*
X91739000Y-114808000D03*
X91739000Y-113538000D03*
X91739000Y-112268000D03*
X91739000Y-110998000D03*
X91739000Y-109728000D03*
X91739000Y-108458000D03*
X86315000Y-108458000D03*
X86315000Y-109728000D03*
X86315000Y-110998000D03*
X86315000Y-112268000D03*
X86315000Y-113538000D03*
X86315000Y-114808000D03*
X86315000Y-116078000D03*
X86315000Y-117348000D03*
D12*
G36*
X100472504Y-117236204D02*
G01*
X100496773Y-117239804D01*
X100520571Y-117245765D01*
X100543671Y-117254030D01*
X100565849Y-117264520D01*
X100586893Y-117277133D01*
X100606598Y-117291747D01*
X100624777Y-117308223D01*
X100641253Y-117326402D01*
X100655867Y-117346107D01*
X100668480Y-117367151D01*
X100678970Y-117389329D01*
X100687235Y-117412429D01*
X100693196Y-117436227D01*
X100696796Y-117460496D01*
X100698000Y-117485000D01*
X100698000Y-118735000D01*
X100696796Y-118759504D01*
X100693196Y-118783773D01*
X100687235Y-118807571D01*
X100678970Y-118830671D01*
X100668480Y-118852849D01*
X100655867Y-118873893D01*
X100641253Y-118893598D01*
X100624777Y-118911777D01*
X100606598Y-118928253D01*
X100586893Y-118942867D01*
X100565849Y-118955480D01*
X100543671Y-118965970D01*
X100520571Y-118974235D01*
X100496773Y-118980196D01*
X100472504Y-118983796D01*
X100448000Y-118985000D01*
X99698000Y-118985000D01*
X99673496Y-118983796D01*
X99649227Y-118980196D01*
X99625429Y-118974235D01*
X99602329Y-118965970D01*
X99580151Y-118955480D01*
X99559107Y-118942867D01*
X99539402Y-118928253D01*
X99521223Y-118911777D01*
X99504747Y-118893598D01*
X99490133Y-118873893D01*
X99477520Y-118852849D01*
X99467030Y-118830671D01*
X99458765Y-118807571D01*
X99452804Y-118783773D01*
X99449204Y-118759504D01*
X99448000Y-118735000D01*
X99448000Y-117485000D01*
X99449204Y-117460496D01*
X99452804Y-117436227D01*
X99458765Y-117412429D01*
X99467030Y-117389329D01*
X99477520Y-117367151D01*
X99490133Y-117346107D01*
X99504747Y-117326402D01*
X99521223Y-117308223D01*
X99539402Y-117291747D01*
X99559107Y-117277133D01*
X99580151Y-117264520D01*
X99602329Y-117254030D01*
X99625429Y-117245765D01*
X99649227Y-117239804D01*
X99673496Y-117236204D01*
X99698000Y-117235000D01*
X100448000Y-117235000D01*
X100472504Y-117236204D01*
G37*
G36*
X103272504Y-117236204D02*
G01*
X103296773Y-117239804D01*
X103320571Y-117245765D01*
X103343671Y-117254030D01*
X103365849Y-117264520D01*
X103386893Y-117277133D01*
X103406598Y-117291747D01*
X103424777Y-117308223D01*
X103441253Y-117326402D01*
X103455867Y-117346107D01*
X103468480Y-117367151D01*
X103478970Y-117389329D01*
X103487235Y-117412429D01*
X103493196Y-117436227D01*
X103496796Y-117460496D01*
X103498000Y-117485000D01*
X103498000Y-118735000D01*
X103496796Y-118759504D01*
X103493196Y-118783773D01*
X103487235Y-118807571D01*
X103478970Y-118830671D01*
X103468480Y-118852849D01*
X103455867Y-118873893D01*
X103441253Y-118893598D01*
X103424777Y-118911777D01*
X103406598Y-118928253D01*
X103386893Y-118942867D01*
X103365849Y-118955480D01*
X103343671Y-118965970D01*
X103320571Y-118974235D01*
X103296773Y-118980196D01*
X103272504Y-118983796D01*
X103248000Y-118985000D01*
X102498000Y-118985000D01*
X102473496Y-118983796D01*
X102449227Y-118980196D01*
X102425429Y-118974235D01*
X102402329Y-118965970D01*
X102380151Y-118955480D01*
X102359107Y-118942867D01*
X102339402Y-118928253D01*
X102321223Y-118911777D01*
X102304747Y-118893598D01*
X102290133Y-118873893D01*
X102277520Y-118852849D01*
X102267030Y-118830671D01*
X102258765Y-118807571D01*
X102252804Y-118783773D01*
X102249204Y-118759504D01*
X102248000Y-118735000D01*
X102248000Y-117485000D01*
X102249204Y-117460496D01*
X102252804Y-117436227D01*
X102258765Y-117412429D01*
X102267030Y-117389329D01*
X102277520Y-117367151D01*
X102290133Y-117346107D01*
X102304747Y-117326402D01*
X102321223Y-117308223D01*
X102339402Y-117291747D01*
X102359107Y-117277133D01*
X102380151Y-117264520D01*
X102402329Y-117254030D01*
X102425429Y-117245765D01*
X102449227Y-117239804D01*
X102473496Y-117236204D01*
X102498000Y-117235000D01*
X103248000Y-117235000D01*
X103272504Y-117236204D01*
G37*
G36*
X107457504Y-110632204D02*
G01*
X107481773Y-110635804D01*
X107505571Y-110641765D01*
X107528671Y-110650030D01*
X107550849Y-110660520D01*
X107571893Y-110673133D01*
X107591598Y-110687747D01*
X107609777Y-110704223D01*
X107626253Y-110722402D01*
X107640867Y-110742107D01*
X107653480Y-110763151D01*
X107663970Y-110785329D01*
X107672235Y-110808429D01*
X107678196Y-110832227D01*
X107681796Y-110856496D01*
X107683000Y-110881000D01*
X107683000Y-112131000D01*
X107681796Y-112155504D01*
X107678196Y-112179773D01*
X107672235Y-112203571D01*
X107663970Y-112226671D01*
X107653480Y-112248849D01*
X107640867Y-112269893D01*
X107626253Y-112289598D01*
X107609777Y-112307777D01*
X107591598Y-112324253D01*
X107571893Y-112338867D01*
X107550849Y-112351480D01*
X107528671Y-112361970D01*
X107505571Y-112370235D01*
X107481773Y-112376196D01*
X107457504Y-112379796D01*
X107433000Y-112381000D01*
X106683000Y-112381000D01*
X106658496Y-112379796D01*
X106634227Y-112376196D01*
X106610429Y-112370235D01*
X106587329Y-112361970D01*
X106565151Y-112351480D01*
X106544107Y-112338867D01*
X106524402Y-112324253D01*
X106506223Y-112307777D01*
X106489747Y-112289598D01*
X106475133Y-112269893D01*
X106462520Y-112248849D01*
X106452030Y-112226671D01*
X106443765Y-112203571D01*
X106437804Y-112179773D01*
X106434204Y-112155504D01*
X106433000Y-112131000D01*
X106433000Y-110881000D01*
X106434204Y-110856496D01*
X106437804Y-110832227D01*
X106443765Y-110808429D01*
X106452030Y-110785329D01*
X106462520Y-110763151D01*
X106475133Y-110742107D01*
X106489747Y-110722402D01*
X106506223Y-110704223D01*
X106524402Y-110687747D01*
X106544107Y-110673133D01*
X106565151Y-110660520D01*
X106587329Y-110650030D01*
X106610429Y-110641765D01*
X106634227Y-110635804D01*
X106658496Y-110632204D01*
X106683000Y-110631000D01*
X107433000Y-110631000D01*
X107457504Y-110632204D01*
G37*
G36*
X110257504Y-110632204D02*
G01*
X110281773Y-110635804D01*
X110305571Y-110641765D01*
X110328671Y-110650030D01*
X110350849Y-110660520D01*
X110371893Y-110673133D01*
X110391598Y-110687747D01*
X110409777Y-110704223D01*
X110426253Y-110722402D01*
X110440867Y-110742107D01*
X110453480Y-110763151D01*
X110463970Y-110785329D01*
X110472235Y-110808429D01*
X110478196Y-110832227D01*
X110481796Y-110856496D01*
X110483000Y-110881000D01*
X110483000Y-112131000D01*
X110481796Y-112155504D01*
X110478196Y-112179773D01*
X110472235Y-112203571D01*
X110463970Y-112226671D01*
X110453480Y-112248849D01*
X110440867Y-112269893D01*
X110426253Y-112289598D01*
X110409777Y-112307777D01*
X110391598Y-112324253D01*
X110371893Y-112338867D01*
X110350849Y-112351480D01*
X110328671Y-112361970D01*
X110305571Y-112370235D01*
X110281773Y-112376196D01*
X110257504Y-112379796D01*
X110233000Y-112381000D01*
X109483000Y-112381000D01*
X109458496Y-112379796D01*
X109434227Y-112376196D01*
X109410429Y-112370235D01*
X109387329Y-112361970D01*
X109365151Y-112351480D01*
X109344107Y-112338867D01*
X109324402Y-112324253D01*
X109306223Y-112307777D01*
X109289747Y-112289598D01*
X109275133Y-112269893D01*
X109262520Y-112248849D01*
X109252030Y-112226671D01*
X109243765Y-112203571D01*
X109237804Y-112179773D01*
X109234204Y-112155504D01*
X109233000Y-112131000D01*
X109233000Y-110881000D01*
X109234204Y-110856496D01*
X109237804Y-110832227D01*
X109243765Y-110808429D01*
X109252030Y-110785329D01*
X109262520Y-110763151D01*
X109275133Y-110742107D01*
X109289747Y-110722402D01*
X109306223Y-110704223D01*
X109324402Y-110687747D01*
X109344107Y-110673133D01*
X109365151Y-110660520D01*
X109387329Y-110650030D01*
X109410429Y-110641765D01*
X109434227Y-110635804D01*
X109458496Y-110632204D01*
X109483000Y-110631000D01*
X110233000Y-110631000D01*
X110257504Y-110632204D01*
G37*
G36*
X94677142Y-87566174D02*
G01*
X94700803Y-87569684D01*
X94724007Y-87575496D01*
X94746529Y-87583554D01*
X94768153Y-87593782D01*
X94788670Y-87606079D01*
X94807883Y-87620329D01*
X94825607Y-87636393D01*
X94841671Y-87654117D01*
X94855921Y-87673330D01*
X94868218Y-87693847D01*
X94878446Y-87715471D01*
X94886504Y-87737993D01*
X94892316Y-87761197D01*
X94895826Y-87784858D01*
X94897000Y-87808750D01*
X94897000Y-88721250D01*
X94895826Y-88745142D01*
X94892316Y-88768803D01*
X94886504Y-88792007D01*
X94878446Y-88814529D01*
X94868218Y-88836153D01*
X94855921Y-88856670D01*
X94841671Y-88875883D01*
X94825607Y-88893607D01*
X94807883Y-88909671D01*
X94788670Y-88923921D01*
X94768153Y-88936218D01*
X94746529Y-88946446D01*
X94724007Y-88954504D01*
X94700803Y-88960316D01*
X94677142Y-88963826D01*
X94653250Y-88965000D01*
X94165750Y-88965000D01*
X94141858Y-88963826D01*
X94118197Y-88960316D01*
X94094993Y-88954504D01*
X94072471Y-88946446D01*
X94050847Y-88936218D01*
X94030330Y-88923921D01*
X94011117Y-88909671D01*
X93993393Y-88893607D01*
X93977329Y-88875883D01*
X93963079Y-88856670D01*
X93950782Y-88836153D01*
X93940554Y-88814529D01*
X93932496Y-88792007D01*
X93926684Y-88768803D01*
X93923174Y-88745142D01*
X93922000Y-88721250D01*
X93922000Y-87808750D01*
X93923174Y-87784858D01*
X93926684Y-87761197D01*
X93932496Y-87737993D01*
X93940554Y-87715471D01*
X93950782Y-87693847D01*
X93963079Y-87673330D01*
X93977329Y-87654117D01*
X93993393Y-87636393D01*
X94011117Y-87620329D01*
X94030330Y-87606079D01*
X94050847Y-87593782D01*
X94072471Y-87583554D01*
X94094993Y-87575496D01*
X94118197Y-87569684D01*
X94141858Y-87566174D01*
X94165750Y-87565000D01*
X94653250Y-87565000D01*
X94677142Y-87566174D01*
G37*
G36*
X92802142Y-87566174D02*
G01*
X92825803Y-87569684D01*
X92849007Y-87575496D01*
X92871529Y-87583554D01*
X92893153Y-87593782D01*
X92913670Y-87606079D01*
X92932883Y-87620329D01*
X92950607Y-87636393D01*
X92966671Y-87654117D01*
X92980921Y-87673330D01*
X92993218Y-87693847D01*
X93003446Y-87715471D01*
X93011504Y-87737993D01*
X93017316Y-87761197D01*
X93020826Y-87784858D01*
X93022000Y-87808750D01*
X93022000Y-88721250D01*
X93020826Y-88745142D01*
X93017316Y-88768803D01*
X93011504Y-88792007D01*
X93003446Y-88814529D01*
X92993218Y-88836153D01*
X92980921Y-88856670D01*
X92966671Y-88875883D01*
X92950607Y-88893607D01*
X92932883Y-88909671D01*
X92913670Y-88923921D01*
X92893153Y-88936218D01*
X92871529Y-88946446D01*
X92849007Y-88954504D01*
X92825803Y-88960316D01*
X92802142Y-88963826D01*
X92778250Y-88965000D01*
X92290750Y-88965000D01*
X92266858Y-88963826D01*
X92243197Y-88960316D01*
X92219993Y-88954504D01*
X92197471Y-88946446D01*
X92175847Y-88936218D01*
X92155330Y-88923921D01*
X92136117Y-88909671D01*
X92118393Y-88893607D01*
X92102329Y-88875883D01*
X92088079Y-88856670D01*
X92075782Y-88836153D01*
X92065554Y-88814529D01*
X92057496Y-88792007D01*
X92051684Y-88768803D01*
X92048174Y-88745142D01*
X92047000Y-88721250D01*
X92047000Y-87808750D01*
X92048174Y-87784858D01*
X92051684Y-87761197D01*
X92057496Y-87737993D01*
X92065554Y-87715471D01*
X92075782Y-87693847D01*
X92088079Y-87673330D01*
X92102329Y-87654117D01*
X92118393Y-87636393D01*
X92136117Y-87620329D01*
X92155330Y-87606079D01*
X92175847Y-87593782D01*
X92197471Y-87583554D01*
X92219993Y-87575496D01*
X92243197Y-87569684D01*
X92266858Y-87566174D01*
X92290750Y-87565000D01*
X92778250Y-87565000D01*
X92802142Y-87566174D01*
G37*
D13*
X78105000Y-104140000D03*
D14*
X78105000Y-106680000D03*
X78105000Y-109220000D03*
M02*
